<svg width="20" height="20" viewBox="0 0 20 20" fill="none" xmlns="http://www.w3.org/2000/svg">
<path d="M19.6986 12.419C18.363 17.7762 12.937 21.0365 7.57919 19.7006C2.22361 18.365 -1.03667 12.9387 0.299485 7.58197C1.63447 2.22419 7.06044 -1.03634 12.4166 0.299234C17.7741 1.63481 21.0341 7.0617 19.6984 12.4191L19.6985 12.419H19.6986Z" fill="#F3BA2F"/>
<path fill-rule="evenodd" clip-rule="evenodd" d="M9.99997 6.34671L7.41053 8.93615L7.41058 8.93604L5.90397 7.42937L9.99997 3.33337L14.0973 7.4306L12.5906 8.93727L9.99997 6.34671ZM4.84003 8.49311L3.33331 10L4.83993 11.5064L6.34665 9.99972L4.84003 8.49311ZM7.41055 11.0641L9.99999 13.6534L12.5906 11.0629L14.0981 12.5687L14.0973 12.5695L9.99999 16.6667L5.90399 12.5707L5.90186 12.5686L7.41055 11.0641ZM15.16 8.49396L13.6533 10.0007L15.16 11.5073L16.6667 10.0006L15.16 8.49396Z" fill="white"/>
<path d="M11.5281 9.99919H11.5287L9.99999 8.47034L8.87002 9.59999V9.59999L8.7402 9.72986L8.47247 9.99764L8.47034 9.99972L8.47247 10.0019L9.99999 11.5296L11.5288 10.0008L11.5296 9.99994L11.5282 9.99919" fill="white"/>
</svg>
