<svg width="20" height="20" viewBox="0 0 20 20" fill="none" xmlns="http://www.w3.org/2000/svg">
<path d="M19.7008 12.419C18.3653 17.7762 12.9393 21.0365 7.58145 19.7006C2.22587 18.365 -1.03442 12.9387 0.301744 7.58197C1.63673 2.22419 7.0627 -1.03634 12.4189 0.299234C17.7763 1.63481 21.0364 7.0617 19.7007 12.4191L19.7008 12.419H19.7008Z" fill="#F7931A"/>
<path fill-rule="evenodd" clip-rule="evenodd" d="M14.4107 8.57528C14.6097 7.2445 13.5966 6.52915 12.2111 6.05194L12.6606 4.24928L11.5633 3.97585L11.1257 5.73105C10.8373 5.6591 10.541 5.59131 10.2466 5.5241L10.6872 3.75732L9.59059 3.48389L9.1409 5.28596C8.90218 5.23161 8.66771 5.17789 8.44022 5.12129L8.44149 5.11562L6.92825 4.73773L6.63634 5.90976C6.63634 5.90976 7.45047 6.09638 7.43331 6.10786C7.87767 6.21877 7.95803 6.51292 7.94469 6.74608L7.43273 8.79973C7.46333 8.8075 7.50302 8.81875 7.54681 8.83634L7.51499 8.8284L7.51495 8.82839C7.48787 8.82161 7.45972 8.81457 7.43082 8.80765L6.71323 11.6845C6.65892 11.8195 6.52108 12.0221 6.21041 11.9452C6.22141 11.9611 5.41285 11.7462 5.41285 11.7462L4.86804 13.0023L6.29604 13.3582C6.45242 13.3975 6.60696 13.4377 6.75993 13.4776L6.76002 13.4776C6.86688 13.5055 6.97298 13.5332 7.0784 13.5601L6.62432 15.3835L7.72038 15.6569L8.17007 13.8529C8.4695 13.9342 8.76009 14.0092 9.04456 14.0798L8.59639 15.8753L9.69378 16.1488L10.1478 14.3288C12.019 14.683 13.426 14.5402 14.0182 12.8477C14.4954 11.4851 13.9945 10.6991 13.01 10.1865C13.727 10.0212 14.2671 9.54959 14.4111 8.57543L14.4108 8.57518L14.4107 8.57528ZM11.9036 12.091C11.5924 13.3411 9.63552 12.8243 8.74018 12.5878L8.74017 12.5878C8.65964 12.5665 8.58769 12.5475 8.5263 12.5323L9.12888 10.1167C9.2037 10.1354 9.29513 10.1559 9.39871 10.1791C10.3248 10.387 12.2223 10.8128 11.9036 12.091H11.9036ZM9.58447 9.058C10.3309 9.25721 11.9593 9.6918 12.2429 8.55553H12.243C12.5326 7.39342 10.9501 7.04305 10.1772 6.87193C10.0902 6.85268 10.0135 6.83569 9.95088 6.82008L9.40456 9.01089C9.45614 9.02375 9.51667 9.0399 9.58447 9.058Z" fill="white"/>
</svg>
