<svg width="20" height="20" viewBox="0 0 20 20" fill="none" xmlns="http://www.w3.org/2000/svg">
<circle cx="10" cy="10" r="10" fill="#988430"/>
<circle cx="9.99999" cy="9.99999" r="9.67968" fill="#7A6A2A"/>
<circle cx="10" cy="9.9999" r="9.47573" fill="#BA9F33"/>
<path fill-rule="evenodd" clip-rule="evenodd" d="M4.37213 8.93214C4.31549 8.88041 4.25565 8.82857 4.20061 8.77683C4.14557 8.7251 4.08904 8.67326 4.0324 8.62153L3.86408 8.46153C3.83656 8.43401 3.80744 8.40979 3.77992 8.38217C3.7524 8.35795 3.72008 8.33043 3.69256 8.30611C3.4692 8.09417 3.24456 7.88222 3.02429 7.67017C3.25245 7.87891 3.47581 8.08617 3.70397 8.29801L3.78323 8.37737C3.81075 8.40478 3.83987 8.4291 3.86739 8.45662L4.0356 8.61193C4.09224 8.66366 4.14728 8.7155 4.20392 8.77193C4.26056 8.82835 4.3156 8.8803 4.37224 8.93193L4.37213 8.93214ZM1.40776 8.90014C1.40776 8.90014 2.22002 8.98419 2.6165 9.04083C2.98376 9.09267 4.13266 9.26899 4.13266 9.26899L1.40776 8.90014ZM1.40776 8.90014C1.63592 8.91955 1.86408 8.94377 2.09224 8.96809C2.20872 8.97939 2.3204 8.9923 2.43208 9.00361L2.60349 9.02313C2.66013 9.03113 2.71517 9.03923 2.77181 9.04734L3.45149 9.15571L3.79123 9.21235C3.90291 9.23177 4.01459 9.25289 4.13107 9.2723C4.01939 9.26099 3.90291 9.24478 3.79123 9.22857L3.45149 9.18003L2.77181 9.07977C2.71517 9.07166 2.66013 9.06025 2.60349 9.05225L2.43197 9.03251C2.32029 9.02121 2.20381 9.00499 2.09213 8.99198C1.86397 8.96457 1.63581 8.93534 1.40765 8.89982L1.40776 8.90014ZM4.05181 9.48062C4.05181 9.48062 3.1845 9.70078 2.8916 9.78494C2.6036 9.86419 1.73138 10.1296 1.73138 10.1296L4.0517 9.48073L4.05181 9.48062Z" fill="#CFB66C"/>
<path fill-rule="evenodd" clip-rule="evenodd" d="M4.05173 9.48047C3.8592 9.53711 3.66773 9.59215 3.47242 9.64399L2.89312 9.7993C2.70058 9.85594 2.50912 9.91098 2.31712 9.96762L2.02912 10.0469C1.93365 10.0744 1.83658 10.0986 1.73792 10.1262C1.83328 10.0942 1.93045 10.0615 2.02592 10.034L2.31392 9.9418C2.50645 9.88186 2.69792 9.82522 2.88992 9.76538C3.08565 9.71684 3.27829 9.665 3.47402 9.61807C3.66005 9.57114 3.85589 9.52431 4.05173 9.48058V9.48058V9.48047ZM1.8528 10.6634C1.94816 10.6278 3.04854 10.1149 3.30422 9.99514C3.43222 9.93519 3.80427 9.80314 3.80427 9.80314L1.8528 10.6634Z" fill="#CFB66C"/>
<path fill-rule="evenodd" clip-rule="evenodd" d="M1.85283 10.6633C1.93688 10.6313 2.01624 10.5922 2.0971 10.555L2.33656 10.4433L2.8172 10.2119C2.9772 10.1359 3.13272 10.0519 3.29774 9.98047C3.3819 9.94495 3.46606 9.91583 3.55011 9.88831L3.67811 9.84788C3.72174 9.83658 3.76227 9.82356 3.80611 9.81226C3.64611 9.88831 3.47768 9.95306 3.31747 10.0274C3.15747 10.1068 2.99384 10.1715 2.82872 10.2427L2.34008 10.4578C2.17603 10.5243 2.01603 10.5954 1.85272 10.6633V10.6633H1.85283ZM1.95953 11.1113C1.95953 11.1113 2.95623 10.5272 3.29927 10.3395C3.47889 10.2392 4.0598 9.95113 4.0598 9.95113L1.95953 11.1113Z" fill="#CFB66C"/>
<path fill-rule="evenodd" clip-rule="evenodd" d="M1.95959 11.1117C2.12781 11.0081 2.29933 10.9029 2.47085 10.7961L2.72685 10.6407C2.81421 10.589 2.89837 10.5405 2.98743 10.4887C3.07479 10.4369 3.15895 10.3851 3.24791 10.3366C3.29026 10.3105 3.33464 10.2877 3.38061 10.2687L3.5165 10.2007C3.69613 10.1134 3.87575 10.0243 4.06509 9.94824C3.89357 10.0567 3.71714 10.149 3.54082 10.2443C3.45346 10.2929 3.36439 10.3366 3.27703 10.3851C3.18967 10.4337 3.10551 10.4855 3.01645 10.5325C2.92909 10.5842 2.84493 10.6327 2.75597 10.6797L2.49218 10.8237L1.95981 11.1117V11.1117H1.95959ZM4.05173 10.0792C4.05173 10.0792 3.432 10.555 3.23136 10.7071C3.03072 10.8592 2.4401 11.2864 2.4401 11.2864L4.05173 10.0792V10.0792Z" fill="#CFB66C"/>
<path fill-rule="evenodd" clip-rule="evenodd" d="M7.60844 13.9159L7.29132 13.3156L7.47575 12.5647L8.79127 12.0567L8.23137 10.9079L8.50807 9.74768L9.02753 8.70875L10.6328 8.45637L11.8123 7.33179L14.3593 7.52432L14.8592 10.2476L13.8964 13.6764L13.348 15.4516L11.1246 15.5357L10.0923 14.8205L8.88353 14.3156L7.60844 13.9159V13.9159Z" fill="#E2CC85"/>
<path fill-rule="evenodd" clip-rule="evenodd" d="M11.5081 13.8964C11.5081 13.8964 11.2006 14.0372 10.6761 14.0048C10.5243 13.8009 9.4613 13.7055 9.4613 13.7055C9.4613 13.7055 9.32861 13.665 9.09394 13.7621C8.85778 13.8581 8.63442 13.8463 8.42568 13.898C8.21693 13.9497 8.00968 13.678 7.84968 13.6213C7.68968 13.5615 7.47752 13.4175 7.47752 13.4175L7.02952 13.3737L6.12989 12.9935L4.70066 11.5696L4.31229 12.1776L4.1925 12.93L4.62461 13.8216L5.78802 14.8815L8.05661 15.4575L9.40125 15.0613L11.0857 14.3493L11.5081 13.8963V13.8964Z" fill="#F1D789"/>
<path fill-rule="evenodd" clip-rule="evenodd" d="M3.44822 8.864L3.73622 7.99189L4.07937 7.42869L5.18444 7.33643L4.8527 8.30411L3.92886 9.94816L4.31233 11.4158L3.63276 11.7555L3.4239 11.4352L3.25569 10.7006L3.24438 9.87531L3.44822 8.864V8.864Z" fill="#F4ECB4"/>
<path fill-rule="evenodd" clip-rule="evenodd" d="M4.68769 13.8366L4.47574 13.5405C4.47574 13.5405 4.4191 13.3997 4.45153 13.2767C4.48353 13.1521 4.47894 13.144 4.46283 13.0971C4.44673 13.0501 4.31073 12.8883 4.31883 12.7491C4.32683 12.6083 4.30753 12.5614 4.41099 12.4498C4.51937 12.3414 4.48705 12.1537 4.48705 12.1537L4.62785 12.2411L4.65985 12.1925C4.65985 12.1925 4.71158 12.233 4.71158 12.2961C4.72289 12.2087 4.67595 11.8042 4.78273 11.712C4.8895 11.6198 5.07883 12.144 5.07883 12.144L4.96235 11.3835L4.66294 10.6036L4.13057 9.89162L4.09857 9.10677V9.03882C4.09857 9.03882 3.85419 9.41429 3.78625 9.71082C3.73771 9.91466 3.85419 10.1622 3.82998 10.4551C3.81046 10.7464 3.78625 10.7237 3.85739 10.8391C3.92854 10.9546 4.10177 11.1919 4.03382 11.3634C3.97398 11.5107 3.77003 11.4071 3.77003 11.4071C3.77003 11.4071 3.72961 11.5268 3.67457 11.5706C3.65515 11.4994 3.63414 11.4541 3.59531 11.4106C3.59201 11.4381 3.58401 11.4753 3.58401 11.4753C3.58401 11.4753 3.54838 11.3636 3.51275 11.2228C3.46433 11.0352 3.41249 10.7876 3.36555 10.6549C3.34614 10.731 3.29761 10.9623 3.29761 10.9623L3.32513 11.3184L3.45782 11.807L3.58582 12.127L3.71041 12.5186L3.81867 12.7816L3.90603 12.9823L3.98209 13.4338L4.34934 13.8221L4.54518 13.9095L4.68747 13.8367V13.8367L4.68769 13.8366Z" fill="#F3E19D"/>
<path fill-rule="evenodd" clip-rule="evenodd" d="M3.64072 8.15199C3.64072 8.15199 3.37693 8.59999 3.30098 9.05162C3.22504 9.50324 3.15698 9.98047 3.20498 10.5953C3.25352 11.2151 3.34578 11.5953 3.42024 11.8672C3.54824 12.3187 3.87976 12.9465 3.87976 12.9465L3.89106 12.9222C3.83534 12.8166 3.79086 12.7054 3.75837 12.5905C3.71464 12.419 3.69842 12.2151 3.658 12.1229C3.62237 12.0307 3.56253 11.9513 3.53341 11.8381C3.50589 11.7297 3.50141 11.5582 3.41693 11.4304C3.3813 11.3785 3.33757 11.2427 3.32466 11.1068C3.30845 10.9028 3.33277 10.6747 3.31336 10.487C3.27773 10.1747 3.25352 9.96276 3.28584 9.79924C3.31816 9.63572 3.48658 9.17151 3.59016 8.80255C3.6581 8.56628 3.61757 8.36724 3.74216 8.1617C3.86674 7.95786 3.9429 7.77823 3.97032 7.65364C4.00232 7.54036 3.64029 8.15199 3.64029 8.15199V8.15199H3.64072Z" fill="#F2E8B0"/>
<path fill-rule="evenodd" clip-rule="evenodd" d="M4.89162 7.97241C4.89162 7.97241 4.75572 8.01295 4.69098 8.08409C4.62623 8.15204 4.59871 8.20868 4.51135 8.32356C4.42399 8.43844 4.41908 8.53231 4.34783 8.67631C4.27668 8.81711 4.11967 9.02905 4.10026 9.10511C4.08084 9.18116 4.04852 9.53711 4.0081 9.70543C3.97247 9.87375 4.04852 10.0809 4.04852 10.0809L4.14068 10.0614C4.14068 10.0614 4.14068 10.1812 4.23295 10.2621C4.32511 10.3414 4.34132 9.99343 4.34132 9.99343L4.68596 8.83001L5.20532 8.47727L5.26196 8.19247L4.8914 7.97241V7.97241H4.89162Z" fill="#F5EEC0"/>
<path fill-rule="evenodd" clip-rule="evenodd" d="M5.14398 8.50001C5.14398 8.50001 4.89961 8.51612 4.77993 8.60358C4.73139 8.6391 4.71198 8.66822 4.66025 8.71196C4.56478 8.79121 4.46761 8.86406 4.42078 8.96796C4.36894 9.07142 4.3123 9.22844 4.27347 9.52454C4.25726 9.64913 4.25726 9.76401 4.24595 9.86438C4.22974 10.0003 4.20553 10.1086 4.21843 10.1844C4.23465 10.3397 4.39486 10.4206 4.41043 10.597L4.74217 10.4288L5.05449 9.19729L5.71795 8.78129L5.34249 8.3606L5.14355 8.49926V8.49926L5.14398 8.50001Z" fill="#E6DB9D"/>
<path fill-rule="evenodd" clip-rule="evenodd" d="M3.39391 16.7924C3.39529 16.7802 3.39668 16.768 3.39807 16.7556C3.44649 16.3396 3.45471 16.0243 3.49023 15.8268C3.54196 15.5469 3.57759 15.4428 3.56948 15.3381C3.55817 15.1699 3.54527 15.0469 3.56148 14.9174C3.58569 14.7459 3.75401 14.542 3.74921 14.4012C3.74591 14.2895 3.68927 14.2168 3.64073 14.1488C3.5922 14.0809 3.55337 14.0243 3.55337 14.0243C3.55337 14.0243 3.88511 13.7961 3.88191 12.877C3.88868 12.8789 3.8952 12.8816 3.90132 12.8851L4.06473 13.3494L4.17641 13.4853L4.60521 14.2846L5.157 14.8203L5.97247 15.3688L6.48383 15.9253L6.53556 17.4091L5.86729 18.2764L5.75785 18.4746C4.88838 18.0381 4.09108 17.4707 3.3938 16.7923L3.39391 16.7924Z" fill="#E5CB7A"/>
<path fill-rule="evenodd" clip-rule="evenodd" d="M5.4353 18.212C5.4353 18.212 5.44661 18.0275 5.59872 17.9077C5.62304 17.9482 5.63914 17.9871 5.63434 18.0161C5.66186 17.9677 5.8544 17.657 6.2897 17.576C6.72501 17.4968 6.83018 17.1796 6.83018 17.1796L7.75402 16.3398L8.81066 15.3674L10.0955 14.9158L10.6959 14.7685C10.6959 14.7685 10.7072 14.8123 10.6846 14.9093C10.7962 14.9013 11.0437 14.8447 11.301 14.754C11.4046 14.7136 11.5018 14.6974 11.5535 14.7508C11.6295 14.822 11.6408 14.9903 11.6456 15.0906C11.7702 15.063 11.9142 14.9434 12.0296 14.9547C12.2142 14.9741 12.3776 15.1909 12.5653 15.1909C12.8129 15.1909 12.9245 15.0388 13.0977 14.919C13.2013 14.8479 13.3501 14.759 13.4342 14.699C13.6349 14.5517 15.7579 13.9028 15.7579 13.9028L16.5022 13.9514L16.622 14.7507L16.558 16.8403C16.5501 16.8479 16.5422 16.8558 16.5342 16.8634L13.1499 18.6309L8.45866 19.3501C7.40782 19.1784 6.39373 18.8296 5.45962 18.3185L5.43562 18.2118V18.2118L5.4353 18.212Z" fill="#D8C173"/>
<path fill-rule="evenodd" clip-rule="evenodd" d="M3.67841 17.0582C3.74507 16.9188 3.80502 16.8022 3.81558 16.7605C3.8239 16.8446 3.83915 17.029 3.86987 17.225C3.80537 17.1702 3.74155 17.1146 3.67841 17.0581V17.0582Z" fill="#F1D789"/>
<path fill-rule="evenodd" clip-rule="evenodd" d="M7.1053 19.0248L7.71202 18.8561L7.76375 18.8723C7.76375 18.8723 7.79127 18.8885 7.79127 18.9434C7.86733 18.8998 7.93207 18.9078 7.97901 18.8788C8.00322 18.9305 8.02743 19.1021 8.13431 19.1231C8.24589 19.1474 8.36567 19.0745 8.48706 18.9824C8.60674 18.8869 8.74306 18.7671 8.84621 18.7186C8.88405 18.7882 8.91757 18.86 8.94658 18.9337C9.08247 18.8254 9.31874 18.3853 9.65527 18.3933C9.75254 18.1634 9.91504 17.9671 10.1227 17.8286C10.435 17.6166 10.6307 17.6004 10.8751 17.6198C10.9722 17.4937 11.0918 17.3867 11.2279 17.3043C11.2683 17.3205 11.38 17.3885 11.5192 17.3237C11.66 17.2591 11.8185 17.0082 12.0272 16.9759C12.1397 16.9604 12.2541 16.9844 12.3508 17.0438C12.3508 17.0438 12.9588 16.4402 13.3784 16.2395C13.3622 16.191 13.3298 16.0082 13.8217 15.6036C13.8492 15.6279 13.8298 15.6959 13.8492 15.6996C13.8572 15.6996 13.9772 15.6479 14.1291 15.5313C14.3168 15.3906 14.5417 15.2433 14.6776 15.2029C14.9336 15.1268 15.2051 15.2821 15.2051 15.2821C15.2282 15.2659 15.254 15.2539 15.2812 15.2465C15.3458 15.2352 15.3928 15.2271 15.4284 15.2145C15.4252 15.2986 15.4721 15.4426 15.4284 15.5672C15.4791 15.5957 15.5327 15.6185 15.5884 15.6352C15.561 15.695 15.501 15.8471 15.4008 15.92C15.4848 15.9604 15.4961 16.0073 15.6159 16.048C15.5674 16.1159 15.4879 16.2325 15.4525 16.304C15.4169 16.38 15.289 16.6955 15.2323 16.8152C15.1725 16.935 15.0916 17.1551 15.0527 17.1992C15.0138 17.2434 14.8731 17.4306 14.7647 17.5227C14.8607 17.4871 15.2535 17.3674 15.4201 17.3221C15.3705 17.3949 15.1191 17.7679 14.8774 18.1266C12.5362 19.5298 9.70439 19.8576 7.10455 19.0264L7.1053 19.0248Z" fill="#E0CD81"/>
<path fill-rule="evenodd" clip-rule="evenodd" d="M5.18399 8.45637C5.18399 8.45637 5.0433 8.45637 5.01578 8.47579C4.98826 8.4952 5.15658 8.53573 5.20831 8.55515C5.26004 8.57456 5.37172 8.66352 5.40084 8.73477C5.42836 8.80272 6.41215 9.19909 6.41215 9.19909L7.10794 9.16347L7.34783 8.83205L6.89151 8.43237L7.21151 7.48901L6.78762 7.55696L5.7682 8.16496L5.25684 8.3608L5.18399 8.45637V8.45637Z" fill="#DFC57C"/>
<path fill-rule="evenodd" clip-rule="evenodd" d="M6.71197 8.76875C6.73244 8.8019 6.76903 8.82161 6.80797 8.82049C6.95197 8.82049 7.08456 8.85611 7.1396 8.92886C7.23187 9.04545 7.48755 9.41761 7.48755 9.41761L8.09917 9.63766L8.13864 8.91744L7.47037 8.45312L6.70984 8.73302V8.76865H6.71155L6.71197 8.76875Z" fill="#E5CC7C"/>
<path fill-rule="evenodd" clip-rule="evenodd" d="M6.59203 9.03566C6.59203 9.03566 6.7036 9.04377 6.8444 8.99193C6.9852 8.94009 7.21656 8.82852 7.31694 8.87225C7.45763 8.93209 7.42851 9.11982 7.58072 9.28825C7.67288 9.39182 7.8412 9.38862 7.93667 9.5003C8.03214 9.61198 8.36056 9.56014 8.36056 9.56014L8.48515 10.2321L7.9852 10.873L7.82168 11.6691H7.14563L6.52803 11.424L6.22382 10.688L6.37592 9.94372L6.59203 9.03566V9.03566Z" fill="#D2C281"/>
<path fill-rule="evenodd" clip-rule="evenodd" d="M7.89973 9.06789C7.91649 9.07306 7.93392 9.07579 7.95146 9.076C7.93205 9.09221 7.89151 9.12773 7.90773 9.22C7.92394 9.31227 7.97567 9.42875 7.93205 9.49989C7.96687 9.53797 7.99284 9.58329 8.0081 9.63259C8.03562 9.71195 8.04373 9.78469 8.22325 9.79611C8.19734 9.81206 8.17345 9.83107 8.1521 9.85275C8.1521 9.85275 8.27669 9.96112 8.33983 10.0614C8.40447 10.0586 8.57599 10.0053 8.57599 10.0053L8.61162 10.0296L8.68767 9.9976C8.68767 9.9976 8.61653 9.97008 8.66826 9.79696C8.71679 9.64485 8.76053 9.65296 8.76426 9.64165C8.76799 9.63035 8.79989 9.47013 8.79989 9.40539C8.8241 9.32133 8.84351 9.06565 8.84351 9.06565L8.79178 8.50096L8.50058 8.32453L8.26378 8.09595L8.04042 8.51664L7.89333 8.66331L7.88202 9.02736L7.89973 9.06789V9.06789Z" fill="#E2C270"/>
<path fill-rule="evenodd" clip-rule="evenodd" d="M8.60034 8.59551C8.60034 8.59551 8.65208 8.74271 8.6716 8.85599C8.67847 8.83397 8.68228 8.8111 8.6829 8.78804C8.6829 8.78804 8.72333 9.0114 8.73133 9.10367C8.74754 9.10036 8.76333 9.09556 8.76696 9.11167C8.77058 9.12778 8.80749 9.30751 8.79896 9.40778C8.86634 9.29661 8.95958 9.20337 9.07074 9.13599C9.13549 9.09546 9.21154 9.05183 9.2909 9.04852C9.41549 9.04532 9.50605 9.12788 9.65496 9.12788C10.0141 9.12788 10.3394 8.8641 10.5789 8.78324C10.7552 8.7233 10.9073 8.67967 11.0141 8.5825C11.0659 8.53887 11.1582 8.4418 11.2423 8.2977C11.3539 8.1057 11.4704 7.93855 11.587 7.91754C11.5343 7.92723 11.4806 7.93102 11.427 7.92884C11.427 7.92884 11.4626 7.89322 11.523 7.84468C11.5834 7.79615 11.6557 7.73631 11.7592 7.73631C11.9437 7.73631 12.0359 7.76372 12.1394 7.76372C12.243 7.76052 12.3028 7.73631 12.3028 7.73631C12.3028 7.73631 12.4113 7.81236 12.6556 7.81236C12.9 7.81556 13.0634 7.83658 13.1913 7.84799C13.3192 7.8594 13.7479 7.81236 13.8708 7.81599C13.951 7.81908 14.0298 7.83835 14.1023 7.87263L13.7058 6.72063L12.2816 5.47583L11.4337 6.07615L10.1294 7.38036L8.86733 7.84799L8.60354 8.1441V8.59551H8.60034Z" fill="#CCB360"/>
<path fill-rule="evenodd" clip-rule="evenodd" d="M11.4321 7.93536C11.4321 7.93536 11.4677 7.89984 11.5275 7.85131C11.5872 7.80277 11.6603 7.74283 11.7637 7.74283C11.9481 7.74283 12.0404 7.77035 12.144 7.77035C12.2476 7.76715 12.3074 7.74283 12.3074 7.74283C12.3074 7.74283 12.416 7.81877 12.6601 7.81877C12.9045 7.82197 13.0679 7.84299 13.1958 7.85429C13.3237 7.8656 13.7524 7.81877 13.8754 7.82229C13.9556 7.82531 14.0343 7.84458 14.1068 7.87893L13.9271 7.35947L13.7185 6.96309L13.123 6.31093C13.123 6.31093 12.4083 5.89024 12.4029 5.88704C12.3997 5.88384 12.1553 5.81909 12.1553 5.81909L11.508 6.21067L10.9207 7.73013L10.9094 8.05013L11.2896 8.22976C11.3851 8.06976 11.4903 7.94176 11.589 7.92555C11.4999 7.93525 11.432 7.93525 11.432 7.93525V7.93525L11.4321 7.93536Z" fill="#D5B457"/>
<path fill-rule="evenodd" clip-rule="evenodd" d="M11.424 8.04381C11.3674 8.04701 11.3205 8.0357 11.3075 7.99527C11.259 7.85938 11.2202 7.83997 11.1795 7.83997C11.1389 7.83997 11.0841 7.92733 11.0515 7.93533C11.019 7.94333 10.9804 7.83506 10.9804 7.83506L10.9448 7.81885C10.9448 7.81885 10.736 7.95474 10.5888 8.11495C10.4416 8.27517 10.2004 8.54706 10.0921 8.59549C9.98369 8.64391 9.61143 8.66023 9.48407 8.68775C9.35671 8.71527 9.21548 8.80754 9.19607 8.82855C9.17665 8.84957 9.25281 8.87218 9.26412 8.89319C9.27543 8.91261 9.13943 8.9045 9.12812 8.92519C9.12012 8.94141 9.16012 9.03357 9.17996 9.0805C9.21468 9.06324 9.25277 9.05384 9.29153 9.05298C9.41612 9.04978 9.50679 9.13234 9.65559 9.13234C10.0148 9.13234 10.3401 8.86855 10.5795 8.78759C10.756 8.72775 10.9081 8.68402 11.0148 8.58695C11.0666 8.54333 11.1588 8.44615 11.243 8.30215C11.3044 8.20349 11.3644 8.11122 11.4243 8.04327V8.04327L11.424 8.04381Z" fill="#D2B257"/>
<path fill-rule="evenodd" clip-rule="evenodd" d="M6.272 16.0518C6.272 16.0518 6.24 15.932 5.94347 15.623C5.85931 15.5356 5.80758 15.463 5.75094 15.411C5.61014 15.2782 5.52758 15.2427 5.42731 15.1667C5.20726 15.0033 4.96779 15.0033 4.78336 14.8026C4.59894 14.602 4.384 14.2186 4.23467 13.8268C4.08747 13.4353 4.04694 13.3107 4.04694 13.2994C4.04694 13.2881 4.08747 13.212 4.1392 13.2233C4.19094 13.2346 4.19094 13.3349 4.20395 13.3592C4.22972 13.3989 4.25896 13.4362 4.29131 13.4708C4.36736 13.5582 4.47574 13.6628 4.53078 13.8187C4.51947 13.686 4.47414 13.5388 4.47414 13.5388C4.47414 13.5388 4.75894 13.7185 5.0016 13.9061C5.24598 14.0938 5.34624 14.1586 5.4176 14.2782C5.48896 14.3979 5.65707 14.7136 5.7376 14.8058C5.81814 14.8981 6.9216 15.2459 6.9216 15.2459L7.44651 15.6373L7.7071 16.2085L7.50315 16.5285L7.11158 16.6126L6.47563 16.3278L6.272 16.0517V16.0517V16.0518Z" fill="#D2B159"/>
<path fill-rule="evenodd" clip-rule="evenodd" d="M4.85919 14.0841C4.85919 14.0841 4.99189 14.2961 5.31551 14.4967C5.60682 14.6731 6.06794 14.8334 6.47903 14.9288C6.71519 14.9855 6.95146 15.0291 7.16341 15.0324C7.73461 15.0404 8.12778 14.8771 8.61493 14.8236C8.87871 14.7961 9.20234 14.7751 9.53887 14.6956C9.97087 14.5921 10.2266 14.4755 10.5745 14.3116C10.8269 14.1952 11.0583 14.1078 11.246 13.9961C11.5098 13.8408 11.7023 13.6677 11.9256 13.616C11.8981 13.692 11.869 13.8279 11.649 13.9687C11.7654 13.9654 11.9256 13.9574 11.9256 13.9574C11.9256 13.9574 11.7703 14.0496 11.4968 14.2567C11.3285 14.3847 11.1053 14.6014 10.8771 14.7454C10.7298 14.8376 10.5696 14.9054 10.4644 14.9606C10.2084 15.1014 10.1052 15.1726 9.93695 15.3446C9.99679 15.3414 10.0017 15.3446 10.0017 15.3446C10.0017 15.3446 9.78965 15.3721 9.63765 15.453C9.60565 15.453 9.55018 15.4417 9.45311 15.4692C9.37706 15.4934 9.27669 15.5486 9.17322 15.5776C9.02591 15.6213 8.97749 15.6019 8.97749 15.6019L9.0017 15.6504C9.0017 15.6504 8.8097 15.6471 8.7457 15.6536C8.75701 15.6568 8.75381 15.6617 8.75381 15.6617C8.74256 15.6636 8.73174 15.6674 8.72181 15.673C8.69101 15.693 8.65713 15.7077 8.62154 15.7167C8.60213 15.7199 8.58591 15.7199 8.56159 15.7248C8.5697 15.7442 8.63285 15.8528 8.66197 15.9168C8.63775 15.933 8.27359 16.2081 8.27359 16.2081C8.28489 16.2258 8.29412 16.2448 8.30111 16.2647C8.31242 16.3002 8.31733 16.3521 8.32863 16.3763C8.35605 16.4248 8.37226 16.4329 8.37226 16.4329C8.37226 16.4329 8.32863 16.441 8.25247 16.4604C8.18783 16.4767 8.10847 16.5041 7.99647 16.5203C7.96211 16.5248 7.92754 16.5275 7.8929 16.5284C7.90911 16.564 7.98026 16.6999 7.84917 16.8568C7.71807 17.0137 7.67765 17.0366 7.63722 17.1368C7.61687 17.1214 7.5952 17.1079 7.57247 17.0963C7.52885 17.0769 7.4689 17.0479 7.44789 17.0089C7.43564 17.0608 7.41941 17.1117 7.39935 17.161C7.35893 17.2694 7.29909 17.3763 7.28778 17.4571C7.24405 17.4086 7.16319 17.3131 7.05151 17.3326C6.93983 17.352 6.85087 17.5041 6.83146 17.5478C6.83146 17.5203 6.81205 17.4993 6.80725 17.5316C6.80394 17.5672 6.7425 17.9393 6.39946 18.2403C6.39626 18.1642 6.39626 17.9959 6.38815 17.941C6.35615 17.973 6.31701 18.0202 6.08394 18.1206C5.85578 18.2209 5.89194 18.3212 5.89194 18.3212C5.89194 18.3212 5.87253 18.1612 5.99551 17.9927C6.1201 17.8245 6.19615 17.7451 6.19615 17.7322C6.19414 17.7191 6.18853 17.7068 6.17994 17.6966C6.16373 17.6804 6.13141 17.661 6.13141 17.6481C6.15082 17.6401 6.34335 17.5478 6.33205 17.3568C6.32074 17.1854 6.24799 17.0963 6.19615 17.0332C6.18815 17.0251 6.27231 16.9653 6.2609 16.9459C6.25279 16.9346 6.14933 16.8584 6.13631 16.8179C6.13937 16.7937 6.1448 16.7699 6.15253 16.7467C6.16383 16.7111 6.17194 16.6868 6.16874 16.6626C6.16063 16.6222 6.1169 16.5105 6.10399 16.4992C6.1153 16.5024 6.19615 16.4992 6.19615 16.4992C6.19615 16.4992 6.13151 16.3956 6.1201 16.3471C6.10869 16.2985 6.08447 16.1706 6.07157 16.1464C6.09909 16.1496 6.16703 16.1544 6.16703 16.1464C6.17034 16.1221 6.10719 16.0817 6.13503 16.0504C6.15445 16.0536 6.19167 16.0698 6.22719 16.1152C6.20778 16.0633 6.17546 15.9631 6.10741 15.9226C6.13941 15.9113 6.24821 15.8821 6.34367 15.9387C6.43914 15.9954 6.47167 16.0746 6.47167 16.0746C6.47167 16.0746 6.52831 16.1184 6.61578 16.1831C6.71605 16.2624 6.84383 16.3751 7.04778 16.4549C7.09151 16.4792 7.20309 16.4792 7.28405 16.463C7.3193 16.4546 7.35309 16.441 7.38431 16.4226C7.39558 16.4159 7.40753 16.4105 7.41994 16.4064C7.40254 16.3715 7.38254 16.3379 7.3601 16.306C7.38762 16.306 7.41994 16.3093 7.41994 16.3093C7.41994 16.3093 7.43935 16.2656 7.35199 16.1813C7.37141 16.1619 7.39573 16.1493 7.39573 16.1166C7.36821 16.1134 7.31967 16.0729 7.30837 16.0567C7.32447 16.0454 7.34879 16.0082 7.37631 15.9969C7.35199 15.9775 7.29215 15.8965 7.26463 15.8885C7.29092 15.8787 7.31636 15.8668 7.34069 15.8529C7.34069 15.8529 7.20479 15.8172 7.16106 15.7881C7.11733 15.7561 7.05269 15.7008 7.01386 15.6846C6.97333 15.6683 6.90218 15.6603 6.87306 15.6279C6.90047 15.636 6.94421 15.6279 6.97663 15.6279C7.00085 15.6279 7.01226 15.6311 7.02026 15.6311C7.01706 15.6198 7.01706 15.5955 7.08021 15.5875C7.11058 15.5829 7.14005 15.5736 7.16757 15.56C7.16757 15.56 7.10762 15.5568 7.03957 15.492C6.97151 15.4273 6.91498 15.3755 6.87615 15.3674C6.83573 15.3593 6.75967 15.395 6.71274 15.3916C6.64799 15.3836 6.62047 15.3512 6.62047 15.3512C6.62047 15.3512 6.40533 15.3706 5.92799 15.0794C5.5153 14.827 5.33567 14.6037 5.33567 14.6037C5.29705 14.5897 5.25972 14.5723 5.2241 14.5519C5.06879 14.471 4.85354 14.3027 4.86005 14.0825V14.0825L4.85919 14.0841Z" fill="#C2A44D"/>
<path fill-rule="evenodd" clip-rule="evenodd" d="M10.8122 4.37218C10.8497 4.38434 10.8829 4.40678 10.9082 4.43693C10.9843 4.52429 11.0328 4.6893 10.8597 4.86573C10.9277 4.88994 10.9557 4.89773 11.015 4.88994C10.9552 4.9612 10.8193 5.1133 10.8112 5.246C10.8031 5.35437 10.871 5.3868 10.871 5.3868C10.871 5.3868 10.7674 5.50648 10.7626 5.7068C10.8116 5.65164 10.8651 5.60075 10.9226 5.55469C11.0424 5.45922 11.2074 5.35085 11.3191 5.2829C11.3176 5.31138 11.3214 5.33989 11.3304 5.36696C11.3304 5.36696 11.5391 5.19544 11.7144 5.2716C11.7937 5.30722 11.7581 5.4188 11.7581 5.4188C11.7581 5.4188 11.8665 5.37837 11.9426 5.45442C12.0186 5.53048 12.1262 5.72664 12.1813 5.80269C12.2055 5.83832 12.2687 5.90626 12.3333 6.01144C12.4216 6.15868 12.4954 6.31419 12.5535 6.47576C12.5567 6.3916 12.5777 6.26061 12.8173 6.34306C13.0567 6.42722 13.3285 6.60365 13.5567 6.95106C13.7848 7.29848 13.8414 7.69069 13.9562 7.84002C14.0727 7.98402 14.1925 8.22349 14.2006 8.32386C14.2087 8.42424 14.165 8.74776 14.4045 9.62317C14.4724 9.35138 14.576 8.74776 14.576 8.74776L14.6326 8.21538L14.6974 6.56813L12.9773 5.13912L11.6326 4.16333L10.7572 4.24749L10.8121 4.37208V4.37208L10.8122 4.37218Z" fill="#CAA13E"/>
<path fill-rule="evenodd" clip-rule="evenodd" d="M14.0081 6.82356C14.0081 6.82356 13.9838 6.66356 13.5793 6.39156C13.1747 6.12297 12.8592 6.12297 12.568 5.89481C12.3446 5.71519 12.1117 5.30249 11.96 5.1666C11.8127 5.03231 11.7885 4.64393 11.7885 4.64393L12.2852 4.22793L13.024 3.16009L13.6485 2.47241L13.9478 2.88841L14.3638 3.37705L14.5952 4.35764L14.6793 5.79295L14.0073 6.82367L14.0081 6.82356Z" fill="#B59544"/>
<path fill-rule="evenodd" clip-rule="evenodd" d="M14.5081 8.54388C14.5204 8.32622 14.4935 8.10812 14.4288 7.89994C14.3221 7.5682 14.089 6.97919 13.9808 6.7586C13.937 6.51423 13.9695 6.49482 14.0164 6.4673C14.0633 6.43978 14.2398 6.3393 14.3364 5.98676C14.433 5.63423 14.7329 5.62271 14.7329 5.62271L14.9173 5.48682L15.1973 6.1874L15.4416 6.82015L15.5176 7.30399L15.5743 7.71658L15.4416 8.58879L14.7863 9.181L14.508 8.54388V8.54388H14.5081Z" fill="#C89D3A"/>
<path fill-rule="evenodd" clip-rule="evenodd" d="M5.36414 18.2654V18.2475C5.37775 18.239 5.38977 18.2281 5.39966 18.2155C5.41096 18.1992 5.41918 18.1798 5.42718 18.175C5.44339 18.1669 5.51944 18.143 5.55987 18.1507C5.6003 18.1584 5.70718 18.2024 5.76382 18.1992C5.8803 18.196 6.01619 18.107 6.23144 18.1475C6.55507 18.2074 6.63112 18.4274 6.81886 18.552C6.94686 18.6395 7.07934 18.6005 7.09875 18.6005H7.14238C7.15048 18.6005 7.21032 18.5326 7.24275 18.5359C7.3075 18.5391 7.3139 18.5925 7.35432 18.5957C7.44979 18.607 7.63432 18.5472 7.72659 18.5715C7.78212 18.5889 7.82562 18.6324 7.84307 18.6879C7.86248 18.7477 7.84627 18.8238 7.79934 18.8675C7.69907 18.9597 7.6036 19.0471 7.58419 19.1235C7.60888 19.1423 7.63259 19.1624 7.65523 19.1837C6.85461 18.9797 6.0843 18.6713 5.36414 18.2663V18.2654Z" fill="#CEB052"/>
<path fill-rule="evenodd" clip-rule="evenodd" d="M13.9806 15.0323C13.9806 15.0323 14.233 14.6958 14.3204 14.5291C14.4078 14.3572 14.0437 12.1812 14.0437 12.1812L14.7752 9.78484L14.7556 9.00489C14.7556 9.00489 14.7913 8.28479 14.8754 7.97247C14.9758 8.15209 15.2881 8.36895 15.3561 8.48383C15.3881 8.26367 15.4968 7.79935 15.4806 7.3042C15.5405 7.39636 15.6845 8.32361 15.6845 8.32361L15.8285 8.94815L16.0162 9.61161L16.225 10.3123L16.3496 10.7961L16.4207 10.9126L16.4806 11.1165L16.5373 11.3366L16.7007 11.8528L16.7967 12.2767L16.8728 13.0453C16.8893 13.1042 16.9012 13.1642 16.9084 13.2249C16.9116 13.3091 16.8971 13.3576 16.8971 13.3723C16.8971 13.3869 16.9246 13.5567 16.9133 13.6846C16.8971 13.8126 16.8971 13.9127 16.7967 14.0046C16.6963 14.0964 16.6333 14.6453 16.6333 14.6453L16.4537 14.5256C16.4537 14.5256 16.4893 14.3621 16.4051 14.2133C16.321 14.0645 16.1576 14.0337 16.0653 14.058C15.9731 14.0774 15.7887 14.1064 15.7288 14.1583C15.6721 14.21 15.533 14.3702 15.4051 14.4431C15.2451 14.5391 14.9844 14.5467 14.8453 14.579C14.7045 14.611 14.5492 14.707 14.3857 14.8184C14.2575 14.9014 14.1221 14.9728 13.9812 15.0318V15.0318L13.9806 15.0323Z" fill="#CCA847"/>
<path fill-rule="evenodd" clip-rule="evenodd" d="M13.9806 18.5681C13.9806 18.5681 13.9913 18.575 14.0118 18.5863C15.1615 18.0477 16.1915 17.2842 17.0412 16.341C17.0319 16.0135 17.0198 15.6778 17.0066 15.5534C16.9792 15.2897 16.9986 15.0211 16.9905 14.8658C16.9824 14.7105 16.895 14.0777 16.8546 13.9143C16.8109 13.7509 16.7266 13.6699 16.7138 13.6699C16.7025 13.6732 16.6345 13.9774 16.6345 14.0539C16.6345 14.1304 16.6182 14.3145 16.6182 14.3614C16.6069 14.3581 16.6021 14.3294 16.6021 14.3177C16.5859 14.3581 16.5665 14.4294 16.5584 14.4375C16.5503 14.4456 16.5697 14.3695 16.5584 14.3533C16.5471 14.3371 16.5264 14.3452 16.5309 14.3048C16.5328 14.2808 16.5366 14.257 16.5422 14.2337C16.5422 14.2337 16.4937 14.3048 16.4581 14.486C16.4225 14.6657 16.4225 14.6706 16.4096 14.6867C16.3983 14.7062 16.3336 14.7708 16.3302 14.7951C16.327 14.8388 16.3902 14.8825 16.395 14.9067C16.3982 14.9473 16.3384 15.1349 16.3189 15.2267C16.2995 15.3186 16.3076 15.4985 16.2869 15.5908C16.2707 15.6749 16.2549 15.7235 16.1996 15.759C16.24 15.7671 16.2788 15.7784 16.2788 15.7784C16.2788 15.7784 16.3355 16.0179 16.1915 16.2218C16.1397 16.293 16.1268 16.3254 16.0718 16.3901C15.9633 16.5098 15.8792 16.6461 15.871 16.7348C15.8654 16.7086 15.8617 16.6821 15.8597 16.6554C15.8597 16.6554 15.6915 16.8513 15.6203 16.9629C15.5281 17.1069 15.4002 17.0988 15.3643 17.1345C15.3283 17.1701 15.3205 17.2347 15.3323 17.2866C15.3003 17.2946 15.2401 17.306 15.1996 17.4306C15.1802 17.4952 15.1316 17.5586 15.0556 17.6021C14.9795 17.6456 14.8873 17.6587 14.8403 17.67C14.8808 17.6813 14.897 17.6813 14.9164 17.6942C14.8922 17.7347 14.7805 17.7978 14.6559 17.8788C14.5313 17.9548 14.4714 18.0664 14.4406 18.1393C14.4086 18.2072 14.3614 18.2509 14.2853 18.259C14.3173 18.2785 14.3647 18.3237 14.3889 18.3383C14.3533 18.3464 14.2929 18.3464 14.1851 18.4387C14.0718 18.5325 14.033 18.5601 13.9811 18.5682V18.5682L13.9806 18.5681Z" fill="#C39D3C"/>
<path fill-rule="evenodd" clip-rule="evenodd" d="M11.729 19.3178C11.791 19.2743 11.8581 19.2388 11.9288 19.2118C12.1812 19.1116 12.4482 19.0922 12.5534 19.0598C12.6537 19.0278 12.733 18.9837 12.8576 18.9595C12.8543 18.9878 12.8515 19.0145 12.8485 19.0397C12.4812 19.1552 12.1072 19.248 11.7285 19.3178H11.729Z" fill="#D2BA6B"/>
<path fill-rule="evenodd" clip-rule="evenodd" d="M16.384 12.6797C16.384 12.6797 16.3323 12.9596 16.24 13.136C16.1478 13.3124 16.048 13.5567 16.048 13.5567C16.0486 13.5016 16.0551 13.4468 16.0674 13.3932C15.951 13.4611 15.6678 13.6246 15.5874 13.6974C15.5114 13.7653 15.3835 13.8851 15.3512 13.9418C15.4272 13.7185 15.5065 13.5179 15.5195 13.4256C15.403 13.5098 14.8592 13.958 14.5761 14.2541L13.6942 14.9677C13.5924 15.0226 13.4876 15.0717 13.3803 15.1147C13.2283 15.1793 13.0487 15.2343 12.916 15.2862C12.9516 15.1907 13.0081 15.1064 13.0875 15.0256C13.1717 14.9463 13.424 14.6728 13.4629 14.5456C13.4985 14.4129 13.5066 14.3336 13.4597 14.222C13.4159 14.2333 13.3157 14.2382 13.2477 14.2576C13.1798 14.277 13.1069 14.3498 13.1069 14.3498C13.1069 14.3498 13.1586 14.0536 13.2703 13.7738C13.1862 13.777 13.0422 13.8012 13.0422 13.8012C13.0422 13.8012 13.2428 13.4646 13.5862 13.2301C13.481 13.2525 13.3781 13.2844 13.2787 13.3254C13.0781 13.4096 12.8581 13.5342 12.6946 13.6021C12.7868 13.4741 13.4341 12.5504 13.8192 11.6895C14.2032 10.8303 14.3467 10.6102 14.4309 10.1491C14.4745 9.92095 14.4629 9.58378 14.4745 9.28181C14.4858 8.98239 14.523 8.71381 14.4988 8.53418C14.5991 8.65877 14.9745 9.00991 14.9874 9.79477C14.9987 10.5795 14.6283 11.6395 14.235 12.2106C14.331 12.2381 14.5798 12.2705 14.8353 11.8266C15.0909 11.3826 15.0878 11.2587 15.1801 11.0741C15.1914 11.1664 15.1881 11.1987 15.1881 11.1987C15.1881 11.1987 15.5603 10.7473 15.7367 10.1793C15.7723 10.4237 15.8775 10.6389 15.7123 11.0871C15.5651 11.4916 15.3726 11.5904 15.3726 11.5904C15.3726 11.5904 15.4681 11.5742 15.6088 11.49C15.6331 11.5499 15.6283 11.618 15.6687 11.6421C15.7091 11.6662 15.7642 11.7069 15.7723 11.7457C15.8159 11.681 15.8839 11.5984 15.905 11.537C15.8888 11.665 15.8775 12.2246 15.937 12.5094C16.0617 12.4981 16.1895 12.49 16.2768 12.2651C16.217 12.4852 16.217 12.6178 16.2574 12.8055C16.3238 12.7603 16.3836 12.6794 16.3836 12.6794V12.6794L16.384 12.6797Z" fill="#C0993A"/>
<path fill-rule="evenodd" clip-rule="evenodd" d="M12.1796 3.76062C12.1796 3.76062 12.055 3.81236 11.8431 3.81236C11.6587 3.81236 11.7104 3.74121 11.4224 3.74121C10.9791 3.74121 9.43049 3.99721 9.1586 3.99358C8.98217 3.99038 9.75401 4.06964 9.75401 4.06964L11.7266 4.09716L12.123 4.06516L12.2703 3.76542L12.1796 3.76062Z" fill="#A88F33"/>
<path fill-rule="evenodd" clip-rule="evenodd" d="M7.06477 7.61652C7.06477 7.61652 6.81229 7.80905 6.70552 7.95636C6.59874 8.10367 6.5421 8.20063 6.42072 8.32041C6.44921 8.3215 6.47768 8.31768 6.50488 8.30911C6.50488 8.30911 6.50488 8.34111 6.48546 8.34953C6.51944 8.34573 6.55331 8.35749 6.57762 8.38153C6.542 8.40095 6.44493 8.49812 6.52098 8.613C6.57762 8.70036 6.69741 8.70836 6.69741 8.70836C6.69741 8.70836 6.66989 8.78772 6.78477 8.77961C7.03234 8.76831 7.30904 8.65983 7.43682 8.68735C7.56482 8.71935 7.63757 8.73108 7.72813 8.88809C7.82413 9.0434 7.90776 9.06772 7.90776 9.06772C7.90776 9.06772 7.9644 8.92361 7.95149 8.70847C7.99793 8.5925 8.02367 8.46928 8.02754 8.34441L7.94338 7.72468L7.57613 7.26025L7.1004 7.52404L7.06477 7.6162V7.61652Z" fill="#E3C571"/>
<path fill-rule="evenodd" clip-rule="evenodd" d="M7.51617 7.52416C7.51617 7.52416 7.5518 7.60832 7.70071 7.61632C7.68449 7.65195 7.68449 7.65686 7.6894 7.68427C7.6926 7.71179 7.6974 7.75222 7.6974 7.75222C7.71379 7.74428 7.72861 7.73344 7.74113 7.72022C7.74924 7.75584 7.73303 7.81238 7.74113 7.85291C7.74614 7.87756 7.75427 7.90147 7.76535 7.92406C7.76771 7.91852 7.77042 7.91314 7.77345 7.90795C7.77665 7.89984 7.80545 7.99531 7.88513 8.06795C7.88506 8.05678 7.88782 8.04577 7.89313 8.03595C7.89436 8.05624 7.90107 8.07582 7.91255 8.09259C7.90658 8.08975 7.90114 8.08593 7.89644 8.08128C7.89644 8.08128 7.90444 8.33728 7.94817 8.46966C7.95548 8.4611 7.96198 8.45189 7.96759 8.44214C7.96759 8.43414 7.96439 8.51339 7.95628 8.57014C7.94497 8.62678 7.95308 8.70603 7.95308 8.70603C7.98225 8.68306 8.01431 8.66402 8.04844 8.64939C8.09697 8.62987 8.17644 8.57003 8.22487 8.43734C8.25296 8.36219 8.27462 8.28479 8.28961 8.20598C8.30526 8.2361 8.31606 8.26849 8.32161 8.30198C8.32492 8.3424 8.40097 8.32139 8.40097 8.32139L8.41719 8.14496L8.51319 7.74528L8.60055 7.49771L9.02124 6.84246L9.78135 6.25707L10.4448 6.40918L11.0046 5.64864L10.0402 5.06934L9.12759 5.1648L8.29932 6.312L7.63596 7.35254L7.51617 7.52406V7.52406L7.51617 7.52416Z" fill="#D8B65B"/>
<path fill-rule="evenodd" clip-rule="evenodd" d="M12.2961 5.86415C12.2961 5.86415 12.2395 5.87546 12.0761 5.96015C11.9127 6.04485 11.7994 6.07173 11.7362 6.19631C11.6731 6.3209 11.6683 6.41967 11.6683 6.41967C11.6683 6.41967 11.78 6.37114 11.8447 6.35493C11.9127 6.33882 11.9887 6.34362 11.9806 6.37114C11.9728 6.39001 11.962 6.40749 11.9486 6.42287C11.9486 6.42287 12.0766 6.41967 12.0732 6.48282C12.0698 6.54597 12.049 6.61551 12.0248 6.64623C12.0005 6.67823 11.9002 6.72559 11.8889 6.76282C11.8614 6.83887 11.9002 6.84207 11.8856 6.90351C11.8743 6.96346 11.8209 7.07994 11.6461 7.28378C11.4665 7.48773 11.3901 7.63173 11.3901 7.63173C11.3901 7.63173 11.3027 7.46831 11.2574 7.32751C11.2254 7.34362 11.0536 7.43909 11.0536 7.43909L10.6555 6.05242L10.6635 5.96015C10.6635 5.96015 10.6991 5.91653 10.7072 5.83557C10.6474 5.81615 10.6393 5.79994 10.5599 5.72399C10.4806 5.64805 10.4159 5.55567 10.2833 5.49253C10.2639 5.4569 10.2396 5.40847 10.1425 5.38895C10.0455 5.36943 9.98722 5.35343 9.98722 5.35343C9.98722 5.35343 10.039 5.33391 10.0633 5.29349C10.0033 5.30159 9.9549 5.32101 9.82381 5.31781C9.69112 5.3145 9.6765 5.3097 9.60376 5.32101C9.53101 5.33231 9.44376 5.36474 9.41122 5.25306C9.3756 5.22554 9.29954 5.24986 9.2348 5.34522C9.17005 5.44058 9.14744 5.51674 9.02285 5.55397C9.01409 5.60889 8.99486 5.66161 8.96621 5.70927C8.93058 5.76922 8.87394 5.82906 8.79789 5.91802C8.6781 6.05882 8.69752 6.29018 8.50658 6.46661C8.31405 6.64293 8.53858 5.97786 8.53858 5.97786L8.846 5.24186L9.72141 4.38586L11.0807 4.2937L11.2134 4.9977L11.8768 5.22586L12.2959 5.86501V5.86501L12.2961 5.86415Z" fill="#D3AE4D"/>
<path fill-rule="evenodd" clip-rule="evenodd" d="M12.5113 6.01934L11.9401 5.19577L11.5405 4.88825C11.5405 4.88825 11.2557 4.36409 11.2362 4.34788C11.22 4.33657 10.9514 4.30745 10.7799 4.29614L10.8119 4.3754C10.8494 4.38756 10.8826 4.40999 10.9079 4.44014C10.984 4.5275 11.0325 4.69252 10.8594 4.86894C10.9273 4.89316 10.9554 4.90094 11.0147 4.89316C10.9549 4.96441 10.819 5.11652 10.8109 5.24921C10.8028 5.35758 10.8707 5.3899 10.8707 5.3899C10.8707 5.3899 10.7671 5.50969 10.7623 5.7099C10.8112 5.65474 10.8648 5.60386 10.9223 5.5578C11.0421 5.4618 11.2071 5.35385 11.3188 5.2859C11.3173 5.31442 11.3211 5.34296 11.3301 5.37006C11.3301 5.37006 11.5388 5.19854 11.7141 5.2746C11.7934 5.31022 11.7577 5.4219 11.7577 5.4219C11.7577 5.4219 11.8662 5.38148 11.9423 5.45753C12.0183 5.53358 12.1267 5.72932 12.1817 5.80548C12.206 5.8411 12.2691 5.90905 12.3337 6.01412C12.4221 6.16139 12.4958 6.31694 12.5539 6.47854C12.5571 6.4138 12.5701 6.32324 12.6819 6.32324L12.512 6.01902L12.5113 6.01934Z" fill="#CAA13E"/>
<path fill-rule="evenodd" clip-rule="evenodd" d="M3.94827 8.35928C3.94827 8.35928 3.90784 8.25891 3.94827 8.06317C3.98869 7.86744 4.05184 7.77517 4.07285 7.48717C4.09387 7.19917 4.2816 6.83992 4.2816 6.83992L4.80096 6.60376L5.16832 6.70403L5.27669 7.19597L4.81227 7.45197C4.81227 7.45197 4.78805 7.56035 4.65696 7.64771C4.52587 7.73507 4.34464 7.80301 4.30101 7.89208C4.27493 7.94662 4.2559 8.00425 4.24437 8.0636C4.24437 8.0636 4.11168 8.03608 4.03243 8.12344C3.94827 8.21251 3.95147 8.29176 3.94827 8.35971V8.35928Z" fill="#F4EFC8"/>
<path fill-rule="evenodd" clip-rule="evenodd" d="M4.99678 8.22814C4.99678 8.22814 4.95305 8.25566 4.92073 8.32414C4.88873 8.2724 4.81225 7.96488 4.80905 7.68819C4.80585 7.4115 4.78932 7.34291 4.85332 7.24755C4.91732 7.15219 5.1683 7.05171 5.13268 6.87998C5.09705 6.71656 4.94814 6.64862 4.76532 6.69555C4.63732 6.72755 4.54206 6.99976 4.40937 7.13566C4.309 7.23923 4.18932 7.22302 4.157 7.27966C4.11326 7.35571 4.15369 7.43176 4.14078 7.4803C4.13748 7.49651 4.09705 7.58387 4.0242 7.68904C3.877 7.90099 3.62782 8.2004 3.5954 8.46899C3.6067 8.31688 3.5987 8.31368 3.63913 8.14536L3.61481 8.10494L3.77481 7.58067L3.87838 7.14867L4.10985 6.42526L4.51753 5.68584L4.91401 5.24243L5.3266 5.26995L5.37513 5.88968L5.6114 7.0532L6.10814 7.66483L5.31198 8.20062L4.99646 8.22814V8.22814H4.99678Z" fill="#EBCC73"/>
<path fill-rule="evenodd" clip-rule="evenodd" d="M5.2444 8.44803C5.2444 8.44803 5.17646 8.46424 5.15214 8.45134C5.12782 8.43843 5.10371 8.42382 5.11171 8.4076C5.11971 8.39139 5.16344 8.36398 5.16344 8.35096C5.16531 8.32652 5.1474 8.30501 5.12302 8.30243C5.08579 8.29763 5.07448 8.32184 5.07448 8.32184C5.07448 8.32184 5.03886 8.29443 5.00984 8.28984C5.02701 8.28774 5.04428 8.28664 5.06158 8.28654C5.01686 8.26628 4.96943 8.25266 4.92078 8.24611C4.9612 8.2219 5.04056 8.15064 5.0923 8.15064C5.14403 8.15064 5.17646 8.14264 5.16835 8.11512C5.16024 8.0876 5.11982 8.04718 5.07619 8.03096C5.0923 8.01155 5.10371 7.98243 5.06488 7.90296C5.02435 7.82371 5.04056 7.77027 5.05358 7.75096C5.06488 7.72664 5.10531 7.68302 5.12472 7.6555C5.14414 7.62798 5.16035 7.59075 5.19267 7.57134C5.20888 7.56003 5.26062 7.53934 5.31246 7.5196C5.3691 7.50019 5.41603 7.47587 5.44835 7.50019C5.48398 7.5244 5.46776 7.55683 5.46776 7.55683C5.46776 7.55683 5.57944 7.5163 5.67971 7.56814C5.78008 7.61656 6.02446 7.64739 6.02446 7.64739L6.11203 7.82382L5.53272 8.32056L5.29326 8.44035L5.24472 8.44835V8.44835L5.2444 8.44803Z" fill="#E5C66B"/>
<path fill-rule="evenodd" clip-rule="evenodd" d="M6.04851 7.63593C6.04851 7.63593 5.86888 7.75571 5.82845 7.79934C5.85267 7.80265 5.89309 7.81886 5.87688 7.84307C5.85747 7.86729 5.74099 7.95145 5.67624 8.03081C5.60829 8.11006 5.54355 8.21043 5.52093 8.25897C5.49672 8.30259 5.31219 8.43049 5.24915 8.44659C5.38184 8.44659 5.64883 8.28318 5.74909 8.28318C5.74589 8.33171 5.77661 8.38675 5.83325 8.39155C5.88989 8.39635 6.05331 8.42718 6.27336 8.29129C6.49341 8.15859 6.42067 8.05982 6.51283 7.99518C6.68925 7.87859 6.7604 7.77502 6.85747 7.71038C6.95453 7.64574 7.00477 7.63102 7.00477 7.63102C7.00477 7.63102 7.00797 7.58249 7.03677 7.58739C7.05284 7.58923 7.06656 7.59983 7.0724 7.61491C7.0724 7.61491 7.24072 7.49513 7.4564 7.46281C7.45137 7.46056 7.44734 7.45653 7.44509 7.4515C7.44509 7.4515 7.4612 7.44339 7.46451 7.43529C7.46451 7.43529 7.47581 7.41907 7.48392 7.42718C7.49203 7.43529 7.50333 7.49513 7.51955 7.51945C7.55517 7.50323 7.62312 7.35113 7.62312 7.35113L7.78664 6.8835V6.4563L7.65864 6.48062L6.69864 6.8883L6.11603 7.49193L6.04808 7.63593H6.04851Z" fill="#E6BD62"/>
<path fill-rule="evenodd" clip-rule="evenodd" d="M8.81229 5.54051C8.86422 5.52791 8.914 5.50771 8.96003 5.48056C8.94061 5.5324 8.94061 5.58904 8.85645 5.71203C8.77229 5.83502 8.76909 5.85283 8.70115 5.98062C8.6332 6.11331 8.62509 6.30424 8.56035 6.3883C8.58937 6.3742 8.6205 6.36494 8.65251 6.36088C8.65251 6.36088 8.58787 6.41752 8.56035 6.47736C8.53283 6.5372 8.48429 6.66179 8.36461 6.73795C8.24493 6.81411 8.09272 6.86254 7.92931 7.04216C7.76579 7.21848 7.59757 7.44184 7.51331 7.52216C7.55704 7.44611 7.61688 7.294 7.63309 7.19374C7.64931 7.09347 7.62979 6.97358 7.65731 6.84099C7.68483 6.7084 7.68483 6.61283 7.81731 6.38136C7.94979 6.1499 8.17656 5.34574 8.17656 5.34574L8.6652 5.19043L8.81251 5.53998V5.53998L8.81229 5.54051Z" fill="#B6933F"/>
<path fill-rule="evenodd" clip-rule="evenodd" d="M8.45953 5.24434C8.45953 5.24434 8.31233 5.45628 8.2719 5.64402C8.23148 5.83175 8.2686 5.81554 8.24438 5.9078C8.2299 5.96406 8.2299 6.02307 8.24438 6.07932C8.29536 5.9972 8.36516 5.92838 8.44801 5.87858C8.58721 5.79452 8.70049 5.73458 8.76801 5.66343C8.83596 5.58738 8.8926 5.46279 9.0398 5.36732C8.97996 5.35922 8.8958 5.3317 8.8798 5.33532C8.93974 5.26738 9.11926 5.1638 9.30049 5.03922C9.48012 4.91122 9.46881 4.85959 9.76012 4.7318C9.66465 4.74802 9.61932 4.7237 9.53996 4.7318C9.57196 4.66386 9.68396 4.63143 9.79596 4.51986C9.90796 4.40828 9.72481 4.24316 9.72481 4.24316L8.87148 4.75932L8.45889 5.24476L8.45953 5.24434Z" fill="#C49937"/>
<path fill-rule="evenodd" clip-rule="evenodd" d="M6.14398 4.85929L6.1634 4.70398L6.40777 4.31241L6.66345 3.62473V2.68457L6.64404 2.14089L6.68446 1.78484L6.71518 1.67166L6.74761 1.62793L6.95625 1.7363L7.24436 2.12788L7.27188 2.88361L6.99188 4.07614L6.19252 4.94836L6.14398 4.85929V4.85929Z" fill="#DFC068"/>
<path fill-rule="evenodd" clip-rule="evenodd" d="M6.77997 1.58409C6.77997 1.58409 6.65197 1.5874 6.62467 2.11977C6.59736 2.65214 6.58413 2.93204 6.56472 3.19582C6.54531 3.45961 6.50008 3.61972 6.47736 3.77513C6.45464 3.93054 6.44173 4.14238 6.36899 4.27188C6.33699 4.33172 6.26861 4.51945 6.1084 4.66025C5.92877 4.81556 5.6604 4.92404 5.61976 4.93214C5.54851 4.94825 5.18765 4.98388 5.04045 5.06484C4.98872 5.09236 4.89965 5.12468 4.80099 5.21694C4.60515 5.39326 4.34467 5.70878 4.15693 6.08905C3.86893 6.65705 3.58093 8.26057 3.58093 8.26057L3.64568 8.1522C3.64568 8.1522 3.65379 8.0082 3.79779 7.75572C3.93859 7.50334 3.89816 7.22014 4.09389 6.7363C4.16995 6.55188 4.26541 6.31241 4.38189 6.10846C4.56643 5.77673 4.78968 5.49193 5.01464 5.33662C5.38189 5.08425 5.78648 5.02921 5.78648 5.02921L6.22179 4.74121C6.22179 4.74121 6.29784 4.59401 6.39821 4.42569C6.53891 4.18953 6.71821 3.92574 6.75736 3.54228C6.81731 2.97428 6.6732 2.60212 6.68131 2.26558C6.68941 1.92905 6.69261 1.68148 6.76067 1.62153C6.82872 1.56158 6.78008 1.5843 6.78008 1.5843V1.5843L6.77997 1.58409Z" fill="#A88F33"/>
<path fill-rule="evenodd" clip-rule="evenodd" d="M6.77994 4.12463C6.77994 4.12463 6.97194 3.65209 7.05983 3.233C7.07604 3.14884 7.10836 3.06479 7.11647 2.99684C7.1569 2.60036 7.1682 2.43695 7.11647 2.22009C7.07604 2.06009 6.92074 1.91588 6.83978 1.80409C6.76052 1.68751 6.7233 1.64409 6.73951 1.61956C6.75572 1.59503 6.81876 1.55492 6.8802 1.55972C7.01219 1.56356 7.13681 1.6214 7.22495 1.71972C7.34954 1.86372 7.4482 2.35247 7.4482 2.35247L7.55199 2.99737L7.81578 3.80964L6.78015 4.12527V4.12527L6.77994 4.12463Z" fill="#C99E3D"/>
<path fill-rule="evenodd" clip-rule="evenodd" d="M8.58408 3.63268C8.58408 3.63268 8.54845 3.64878 8.48381 3.63268C8.48943 3.68653 8.46443 3.739 8.41907 3.76857C8.35112 3.74105 7.71507 3.79609 7.71507 3.79609C7.71507 3.79609 7.41896 3.74425 7.32669 3.35268C7.26205 3.09209 7.37523 2.73294 7.338 2.49668C7.28136 2.14873 7.20211 2.08068 7.194 1.97241C7.18589 1.86414 7.17779 1.83652 7.17779 1.76857C7.14216 1.76046 7.12115 1.74916 7.08563 1.74916C7.07752 1.71716 7.09363 1.68921 7.05811 1.63257C7.07752 1.64068 7.21021 1.65689 7.36552 1.80409C7.49352 1.92388 7.49352 1.9675 7.51283 1.99182C7.53704 2.01604 7.73288 2.18382 7.81704 2.35108C7.9012 2.51833 8.06461 3.05166 8.10184 3.13902C8.11315 3.17465 8.13747 3.21028 8.19784 3.29113C8.29171 3.40772 8.4292 3.60046 8.58451 3.63246V3.63246L8.58408 3.63268Z" fill="#B58634"/>
<path fill-rule="evenodd" clip-rule="evenodd" d="M7.53571 2C7.63373 2.15835 7.72179 2.32265 7.79939 2.49195C7.89485 2.70709 7.95149 2.88352 8.07128 3.02752C8.00653 2.83989 7.89165 2.47093 7.82371 2.33984C7.74765 2.20117 7.59235 2.05184 7.53571 2.00011V2.00011V2Z" fill="#A88F33"/>
<path fill-rule="evenodd" clip-rule="evenodd" d="M6.43532 4.66026C6.43532 4.66026 6.27191 4.70069 5.9677 4.8609C5.86732 4.91264 5.77196 4.95626 5.6797 4.9968C5.44002 5.10517 5.18295 5.20533 4.979 5.26058C4.99522 5.28 5.00322 5.288 5.00322 5.288C5.00322 5.288 5.00322 5.36736 5.04695 5.41258C5.02274 5.4369 4.699 5.65696 4.79458 6.39317C4.85922 6.36896 4.93527 6.33653 4.94658 6.33653C4.9661 6.33984 4.9709 6.39317 4.99511 6.39317C5.01932 6.39317 5.09868 6.36117 5.18284 6.25237C5.17964 6.2961 5.13111 6.73621 5.39159 7.03232C5.44012 6.97568 5.56311 6.78794 5.56311 6.78794L5.56631 6.7281C5.56631 6.7281 5.57762 6.51936 5.64567 6.32842C5.71372 6.13749 5.84631 5.99669 5.84631 5.99669L6.53868 5.008L6.43511 4.66016V4.66016L6.43532 4.66026Z" fill="#E6C367"/>
<path fill-rule="evenodd" clip-rule="evenodd" d="M5.78804 6.11212C5.75634 6.13452 5.72141 6.15196 5.68446 6.16385C5.67316 6.12342 5.65694 5.98422 5.75241 5.84833C5.86409 5.68481 6.10836 5.47286 6.1763 5.30433C6.22004 5.19585 6.20062 4.92406 6.589 4.57612C6.97737 4.22817 7.12937 4.10849 7.12937 4.10849L7.75721 3.79297L8.52905 4.09718L8.14558 5.60012L7.84788 6.30412L6.66388 6.08086L5.78793 6.11212V6.11212H5.78804Z" fill="#DCBA5A"/>
<path fill-rule="evenodd" clip-rule="evenodd" d="M6.23999 5.70394L6.3873 5.51951V5.38842C6.3873 5.38842 6.55071 5.34469 6.72703 5.16506C6.90335 4.98543 7.14772 4.64079 7.36298 4.66181C7.57823 4.68613 7.59924 5.12943 7.60735 5.25413C7.61546 5.37882 7.64298 5.66181 7.6866 5.81402C7.73514 5.96613 7.16234 6.54213 7.16234 6.54213L6.77332 6.83823L6.23999 5.70394V5.70394Z" fill="#E9CE77"/>
<path fill-rule="evenodd" clip-rule="evenodd" d="M6.6958 7.23951C6.6958 7.23951 6.81559 7.05177 6.7278 7.01135C6.77953 6.89487 6.875 6.77188 6.875 6.77188C6.875 6.77188 6.94295 6.60367 7.163 6.39652C7.38305 6.18937 7.51905 6.05177 7.55468 5.91268C7.57664 5.82203 7.58859 5.72924 7.59031 5.63599C7.6141 5.65542 7.63955 5.67273 7.66636 5.68772C7.70199 5.70393 7.8702 5.84303 7.84599 6.12303C7.82177 6.40303 7.71799 6.51951 7.71799 6.51951C7.71799 6.51951 7.61772 6.61977 7.54657 6.67161C7.47041 6.72335 7.443 6.78319 7.31511 6.78809C7.32825 6.77764 7.34303 6.76943 7.35884 6.76377C7.35884 6.76377 7.22615 6.74767 7.15489 6.81231C7.08364 6.87695 6.93217 7.07609 6.85612 7.13604C6.78007 7.18457 6.69612 7.23961 6.69612 7.23961V7.23961L6.6958 7.23951Z" fill="#CDAE50"/>
<path fill-rule="evenodd" clip-rule="evenodd" d="M12.0761 4.09208C11.8849 4.0224 11.684 3.9831 11.4807 3.9756C11.1408 3.96429 10.6441 3.9837 10.157 3.9869C9.63277 3.9901 9.15704 3.80728 8.49688 3.77496C8.3885 3.71021 8.11288 3.42701 7.2525 4.02733C7.30424 4.02413 7.87714 3.89464 8.07608 4.14392C8.27672 4.39149 8.22008 4.81218 8.19266 4.91245C8.14082 5.13581 7.9725 5.46104 7.90466 5.6892C7.83682 5.91736 7.85282 6.03725 7.80429 6.19725C7.75576 6.35725 7.64898 6.43672 7.71202 6.62114C7.79618 6.56941 7.84002 6.56941 7.98061 6.25389C8.1212 5.93837 8.09229 5.71341 8.32536 5.44642C8.55352 5.17784 8.93336 4.81048 9.07778 4.71821C9.22221 4.62594 10.369 4.03053 11.5697 4.59853C11.8593 4.56781 12.0762 4.09197 12.0762 4.09197V4.09197L12.0761 4.09208Z" fill="#D2A83E"/>
<path fill-rule="evenodd" clip-rule="evenodd" d="M7.73623 3.87202C7.73504 3.85986 7.73235 3.84789 7.72823 3.83639C7.717 3.81273 7.70226 3.7909 7.6845 3.77165C7.6845 3.77165 7.3997 3.71991 7.2557 3.73602C7.00322 3.76354 6.77506 4.07586 6.66828 4.23607C6.56151 4.39629 6.42882 4.64375 6.28482 4.77165C6.28639 4.75919 6.28352 4.74657 6.27671 4.73602C6.27671 4.73602 6.28482 4.74733 6.26871 4.76354C6.2526 4.77975 6.2525 4.78775 6.2606 4.79554L6.28492 4.81975C6.29292 4.81975 6.51628 4.71938 6.8205 4.43575C7.14412 4.13965 7.3917 3.98775 7.52119 3.9357C7.59025 3.90635 7.66243 3.88499 7.73634 3.87202V3.87202H7.73623Z" fill="#C29637"/>
<path fill-rule="evenodd" clip-rule="evenodd" d="M13.2606 2.65527C13.2606 2.65527 13.2087 2.71991 13.144 2.79117C13 2.94327 12.8123 3.11469 12.652 3.29111C12.5 3.45943 12.3285 3.59053 12.1359 3.81058C11.9432 4.03063 11.7199 4.2749 11.6634 4.34615C11.6116 4.41741 11.5712 4.53389 11.5712 4.59373C11.5437 4.57431 11.5114 4.5533 11.5114 4.5533C11.525 4.5787 11.5412 4.60259 11.5599 4.62455C11.6003 4.68119 11.6634 4.75255 11.6958 4.79607C11.7356 4.85148 11.7641 4.91413 11.7798 4.9805C11.7992 4.9837 11.9238 5.00802 12.0792 4.75234C12.2347 4.49666 12.4384 4.21677 12.4384 4.21677L12.762 3.73613L12.966 3.32845L13.222 2.87213L13.2609 2.65527V2.65527H13.2606Z" fill="#AC8132"/>
<path fill-rule="evenodd" clip-rule="evenodd" d="M13.5923 2.32861C13.5923 2.32861 13.3965 2.48861 13.3205 2.58461C13.2444 2.68061 13.0645 2.93256 13.0645 2.93256L13.1292 2.92445L13.4577 2.63325L13.5857 2.40509L13.5922 2.32904L13.5923 2.32861Z" fill="#A88F33"/>
<path fill-rule="evenodd" clip-rule="evenodd" d="M13.5323 15.1876C13.5323 15.1876 13.5291 15.0549 13.6036 14.9757C13.6797 14.8963 13.8722 14.7798 14.0599 14.3429C14.2477 13.906 14.2686 13.8074 14.2686 13.8074C14.2686 13.8074 13.932 14.0954 13.7246 14.1633C13.7731 14.0629 13.8006 13.9918 13.8249 13.9399C13.7974 13.9157 13.6809 13.8882 13.6696 13.8753C13.7343 13.8106 13.7699 13.6519 13.901 13.5468C14.0693 13.4188 14.3767 13.1988 14.6157 13.0028C14.8546 12.8067 15.3243 12.3507 15.3843 12.218C15.4199 12.2698 15.4279 12.3021 15.4279 12.3021C15.4279 12.3021 15.1918 12.6096 15.0688 12.8053C14.9603 12.9736 14.9684 13.0691 14.9684 13.0691L15.1918 12.9731C15.1918 12.9731 15.2564 13.2126 14.9636 13.5767C15.0916 13.5282 15.1432 13.5573 15.216 13.5168C15.0962 13.593 14.9312 13.6965 14.7759 13.9812C14.6238 14.266 14.4166 14.5978 14.0672 14.8048C13.7273 15.0232 13.5315 15.1867 13.5315 15.1867V15.1867L13.5323 15.1876Z" fill="#A67A2E"/>
<path fill-rule="evenodd" clip-rule="evenodd" d="M12.6554 4.26055C12.6554 4.26055 12.5227 4.53714 12.5033 4.75239C12.5001 4.80423 12.4871 4.84466 12.4871 4.9045C12.4839 5.09703 12.4984 5.31228 12.4551 5.41255C12.4388 5.37212 12.4307 5.3446 12.4145 5.3285C12.3903 5.39644 12.3466 5.60839 12.311 5.68764C12.2948 5.63591 12.2592 5.45628 12.2625 5.24434C12.2658 5.03239 12.2705 4.99186 12.2705 4.94823C12.2625 5.01287 12.2188 5.10034 12.2026 5.15207C12.1784 5.10844 12.1508 5.0518 12.1184 5.00487C12.099 5.03687 12.0748 5.08412 12.0538 5.10844C12.0505 5.08903 12.0425 5.03719 12.0376 4.96444C12.0344 4.88028 12.0295 4.77191 12.0344 4.74919C12.0424 4.70556 12.1104 4.53404 12.2544 4.37703C12.4259 4.1893 12.6024 3.82855 12.6541 3.71687C12.7058 3.60519 12.9259 3.14087 12.9259 3.14087H13.0942L12.8498 3.69746C12.8498 3.69746 12.7026 4.00167 12.6266 4.11346C12.5505 4.22524 12.3903 4.54556 12.3191 4.67015C12.3708 4.6022 12.4145 4.56658 12.4664 4.50183C12.5165 4.4565 12.6556 4.26076 12.6556 4.26076V4.26076L12.6554 4.26055Z" fill="#8C6228"/>
<path fill-rule="evenodd" clip-rule="evenodd" d="M13.5955 2.30737C13.568 2.39199 13.5246 2.47057 13.4675 2.53884C13.3671 2.65863 13.1519 2.81873 13.0468 2.94652C12.9508 3.07111 12.7588 3.41095 12.8461 3.81383C12.8781 3.72647 12.9383 3.55335 13.0986 3.35751C13.2588 3.16167 13.4303 2.93681 13.5146 2.76209C13.5986 2.58567 13.6099 2.44657 13.6099 2.44657L13.6419 2.40615L13.6225 2.31388L13.595 2.30737L13.5955 2.30737Z" fill="#CBA94C"/>
<path fill-rule="evenodd" clip-rule="evenodd" d="M16.8722 13.0403C16.8722 13.0403 16.8074 12.864 16.788 12.7038C16.7686 12.5436 16.82 12.5118 16.7605 12.3284C16.7249 12.2168 16.6602 12.2324 16.644 12.2168C16.6278 12.2011 16.6165 12.0323 16.6197 11.9401C16.6229 11.8478 16.6165 11.7281 16.6003 11.6763C16.5761 11.6569 16.5599 11.6407 16.5242 11.521C16.4838 11.4012 16.4644 11.3414 16.445 11.3058C16.4256 11.2703 16.3688 11.2379 16.3688 11.2023C16.3688 11.131 16.4336 11.0939 16.4336 11.0743C16.4304 11.0338 16.3818 11.0663 16.3688 11.0548C16.3527 11.0354 16.4094 10.919 16.3883 10.9027C16.3802 10.8947 16.3236 10.9627 16.309 10.9433C16.2928 10.9238 16.2734 10.7312 16.2442 10.6034C16.2168 10.4788 16.1876 10.3883 16.1844 10.3511C16.1812 10.3154 15.961 9.68759 15.9077 9.53549C15.8647 9.40696 15.8285 9.27625 15.7993 9.14391C15.7831 9.06786 15.7718 8.91245 15.7637 8.92866C15.7556 8.94487 15.7605 9.02413 15.7475 9.02093C15.7362 9.01762 15.6958 8.74103 15.6829 8.6973C15.6715 8.65357 15.6035 8.5053 15.5869 8.39799C15.5706 8.28951 15.5351 8.00631 15.5108 7.81378C15.4865 7.62125 15.4752 7.54199 15.4752 7.49378C15.4791 7.37585 15.4727 7.25781 15.4558 7.14103C15.4238 6.93709 15.3598 6.68951 15.3037 6.54562C15.1953 6.27373 14.9072 5.57794 14.8557 5.40482C14.8557 5.36109 14.9123 5.38541 14.9123 5.38541C14.9123 5.38541 15.053 5.73815 15.1566 6.00994C15.2569 6.28183 15.3524 6.5213 15.3767 6.54562C15.3961 6.56983 15.5482 6.83682 15.6162 7.27373C15.6841 7.71063 15.7083 8.11351 15.7489 8.3821C15.7683 8.5101 15.7845 8.64589 15.8249 8.78178C15.8686 8.92909 15.9365 9.08119 16.0256 9.31415C16.1016 9.50999 16.1583 9.67341 16.189 9.81421C16.2246 9.99383 16.2246 10.1297 16.2456 10.2188C16.2651 10.2948 16.2942 10.4468 16.3622 10.6668C16.4303 10.8867 16.5304 11.17 16.5984 11.3464C16.7312 11.6991 16.7904 11.9936 16.8104 12.1506C16.8281 12.3124 16.8881 12.8723 16.8719 13.0406V13.0406L16.8722 13.0403Z" fill="#A88F33"/>
<path fill-rule="evenodd" clip-rule="evenodd" d="M13.6036 2.28797L13.5955 2.30739C13.5955 2.30739 13.6197 2.31549 13.6149 2.34792C13.6153 2.39228 13.6126 2.43662 13.6068 2.48061C13.5988 2.53725 13.5826 2.58088 13.5794 2.61651C13.5794 2.69256 13.5907 2.77992 13.4834 2.99677C13.4514 3.05661 13.4317 3.10835 13.4155 3.14397C13.375 3.23133 13.3669 3.24435 13.3313 3.28477C13.3879 3.25277 13.5919 3.12477 13.6954 3.14397C13.6242 3.1844 13.5157 3.26376 13.4478 3.36733C13.464 3.37053 13.5319 3.38355 13.6398 3.36733C13.8194 3.33981 14.02 3.27507 14.1964 3.28797C14.389 3.29928 14.313 3.05661 14.313 3.05661L14.0907 2.56797L13.67 2.27197L13.6036 2.28808V2.28797Z" fill="#BE9C44"/>
<path fill-rule="evenodd" clip-rule="evenodd" d="M14.7007 5.94836C14.7007 5.94836 14.513 5.76063 14.4369 5.11636C14.3609 4.46911 14.3771 3.51636 14.3771 3.51636L14.225 3.1442C14.225 3.1442 14.193 2.89663 14.1133 2.80447C14.0336 2.71231 13.8771 2.5569 13.8059 2.48084C13.7346 2.40479 13.6538 2.30122 13.6052 2.285C13.6294 2.24458 13.7379 2.01642 14.1537 2.01322C14.5695 2.01002 14.6977 2.24138 14.7411 2.32554C14.7845 2.4097 14.9806 2.77354 15.0533 3.46687C15.1213 4.15935 15.1246 4.21119 15.1133 4.45066C15.1052 4.58335 15.0614 4.89076 14.9853 5.21919C14.9157 5.49759 14.8397 5.80831 14.7005 5.949L14.7007 5.94836Z" fill="#A17C34"/>
<path fill-rule="evenodd" clip-rule="evenodd" d="M14.112 6.50013C14.1746 6.50465 14.2371 6.49054 14.2916 6.4596C14.3515 6.4564 14.5683 6.48392 14.7349 6.27197C14.7463 6.3204 14.7755 6.4516 14.6993 6.56808C14.7399 6.52755 14.7997 6.51144 14.8078 6.50013C14.811 6.55997 14.8676 6.7444 14.6282 7.19261C14.6928 7.12147 14.7689 7.12467 14.8368 7.11656C14.8401 7.20072 14.8853 7.48381 14.7657 7.63603C14.6864 7.7396 14.5569 7.70717 14.5569 7.70717C14.5588 7.68456 14.5588 7.66184 14.5569 7.63923C14.5537 7.59549 14.5375 7.55187 14.5489 7.52275C14.4864 7.49416 14.4294 7.45469 14.3806 7.40616C14.2398 7.27347 14.057 7.04701 14.0441 6.87869C14.0279 6.69096 14.1962 6.65053 14.1962 6.65053C14.1821 6.63792 14.1701 6.62316 14.1605 6.6068C14.1524 6.57939 14.1443 6.53565 14.112 6.50013V6.50013V6.50013Z" fill="#8C6228"/>
<path fill-rule="evenodd" clip-rule="evenodd" d="M12.864 4.46444C12.864 4.46444 12.8559 4.45313 12.8123 4.50486C12.8204 4.45313 12.8285 4.40449 12.8317 4.35756C12.8523 4.3141 12.879 4.27381 12.911 4.23788C12.8867 4.2863 12.8705 4.33004 12.8705 4.33004C12.8705 4.33004 12.9304 4.21836 13.0178 4.15041C13.0776 4.10188 13.1537 4.07926 13.186 4.03393C13.2216 3.9854 13.2135 3.97729 13.2216 3.96918C13.2216 3.96918 13.301 3.91745 13.4224 3.76524C13.4385 3.74582 13.4628 3.72481 13.479 3.7054C13.5064 3.69409 13.5712 3.66497 13.6472 3.62604C13.7266 3.58241 13.8156 3.52257 13.8706 3.49804C13.979 3.4495 14.094 3.45441 14.1473 3.37825C14.1877 3.36694 14.2313 3.24556 14.2233 3.14209C14.2832 3.1663 14.5906 3.35724 14.6959 3.77473C14.7719 4.07084 14.6359 4.52716 14.5793 4.74732C14.5227 4.96748 14.5147 5.13078 14.4353 5.23105C14.3349 5.36385 14.0114 5.55105 13.932 5.64374C13.8641 5.7198 13.6603 5.91233 13.6683 6.05142C13.6764 6.155 13.8041 6.21142 13.8318 6.23105C13.8594 6.25068 13.8592 6.27478 13.911 6.26305C13.9629 6.25132 13.9822 6.22742 14.0033 6.22742C14.0275 6.23062 14.0275 6.23553 14.0388 6.23553C14.047 6.23529 14.0552 6.23418 14.0631 6.23222C14.0631 6.23222 14.055 6.37953 13.7104 6.42422C13.6861 6.42753 13.6619 6.43553 13.631 6.44044C13.6716 6.42102 13.6958 6.42102 13.7395 6.36118C13.691 6.35308 13.5518 6.34497 13.5161 6.33366C13.5275 6.31425 13.5647 6.26241 13.5954 6.2382C13.6229 6.21398 13.5922 6.2062 13.568 6.21878C13.5263 6.24715 13.4863 6.27792 13.4482 6.31094C13.4078 6.34657 13.3721 6.3951 13.3074 6.43894C13.288 6.3742 13.2912 6.25121 13.3673 6.16225C13.3478 6.16545 13.3106 6.22209 13.2751 6.21078C13.2687 6.15176 13.2725 6.09207 13.2864 6.03436C13.3058 5.9615 13.411 5.83372 13.411 5.83372L13.919 4.92588L14.0274 4.2382L12.864 4.46422V4.46422V4.46444Z" fill="#92723A"/>
<path fill-rule="evenodd" clip-rule="evenodd" d="M12.8366 4.50327C12.8366 4.50327 12.809 4.52268 12.8641 4.55991C12.856 4.57121 12.8366 4.61164 12.8122 4.63916C12.7848 4.67116 12.7556 4.691 12.7443 4.71852C12.7201 4.77516 12.7007 4.81399 12.7007 4.83831C12.7007 4.86263 12.6926 5.01793 12.6246 5.1182C12.6003 5.15383 12.5728 5.21367 12.5534 5.25409C12.5129 5.32524 12.4773 5.38209 12.4692 5.41409C12.4531 5.47073 12.4418 5.62604 12.4418 5.62604C12.4418 5.62604 12.4774 5.58231 12.4903 5.5662C12.4708 5.60663 12.4498 5.65025 12.4191 5.68268C12.4385 5.66647 12.4951 5.62604 12.5906 5.54188C12.7233 5.43031 12.9304 5.24257 13.1829 5.09388C13.1067 5.1214 13.0421 5.1214 12.9904 5.12951C13.0308 5.08908 13.3949 4.66188 13.5858 4.62145C13.5974 4.60675 13.6032 4.5883 13.602 4.56961L13.4385 4.55351L13.1067 4.62465L13.0583 4.36865L12.8366 4.50295V4.50327Z" fill="#B18E3E"/>
<path fill-rule="evenodd" clip-rule="evenodd" d="M13.3642 5.95954C13.3642 5.95954 13.3204 6.00317 13.28 6.11165C13.2489 6.07915 13.2222 6.04267 13.2006 6.00317C13.1408 5.9029 13.0486 5.77501 12.8334 5.84786C12.8302 5.77991 12.8253 5.74429 12.8334 5.69575C12.869 5.68775 12.9774 5.60039 13.0858 5.4725C13.1619 5.38514 13.2331 5.28477 13.2816 5.15698C13.3136 5.13266 13.369 5.09223 13.4416 5.0453C13.5452 4.97415 13.6698 4.87698 13.6892 4.76861C13.6406 4.78802 13.5371 4.83655 13.3817 4.82855C13.4416 4.80103 13.5338 4.77191 13.5225 4.65213C13.5468 4.63591 13.5662 4.62461 13.5662 4.62461C13.5479 4.61852 13.5288 4.61578 13.5095 4.6165C13.5062 4.60519 13.5014 4.58909 13.4739 4.59709C13.4464 4.60509 13.4419 4.60519 13.4383 4.6165C13.427 4.61981 13.3898 4.6165 13.3622 4.63602C13.3347 4.65554 13.2587 4.72007 13.2295 4.73138C13.2409 4.71197 13.257 4.68295 13.257 4.68295C13.257 4.68295 13.1777 4.69095 13.1211 4.71495C13.0175 4.75058 12.8978 4.81533 12.7764 4.87837C12.7877 4.85895 12.7926 4.84637 12.8006 4.84274C12.8086 4.83911 12.8282 4.83474 12.8282 4.83143C12.8282 4.82813 12.8202 4.79943 12.825 4.78781C12.8612 4.71093 12.9041 4.6373 12.953 4.56775C13.0096 4.49159 13.0209 4.38322 13.0209 4.38322L13.2685 4.25863L13.9643 4.09863L14.4158 4.12615L14.3591 4.43847L14.0925 4.98375L13.8643 5.4805L13.6037 5.78482L13.3643 5.95954V5.95954H13.3642Z" fill="#543E26"/>
<path fill-rule="evenodd" clip-rule="evenodd" d="M14.492 4.60792C14.492 4.60792 14.2201 4.94445 14.144 4.99629C14.1925 4.89272 14.492 4.27619 14.6003 4.10467C14.5761 4.08525 14.5437 4.08525 14.6197 3.78467C14.5551 3.93667 14.5324 4.01603 14.479 4.05645C14.4257 4.09688 14.4191 4.08397 14.383 4.08397C14.3899 4.07166 14.3927 4.05753 14.391 4.04355C14.391 4.04355 14.1629 4.01603 14.007 4.01603C13.8512 4.01603 13.5427 4.10019 13.3711 4.16813C13.2352 4.22477 13.1592 4.22477 13.1106 4.26029C13.0621 4.30072 13.0346 4.34445 13.0102 4.35576C12.9908 4.36707 12.8987 4.39619 12.8776 4.42691C12.8581 4.45891 12.8258 4.49485 12.8258 4.50296C12.8258 4.51107 12.8177 4.52248 12.842 4.51427C12.85 4.51107 12.91 4.47864 12.9779 4.43821C13.0701 4.38648 13.1818 4.32664 13.2627 4.29101C13.4941 4.19875 13.5669 4.21496 13.6704 4.19555C13.7788 4.17613 13.9342 4.1308 14.0377 4.1308C14.1412 4.1276 14.3371 4.1308 14.3824 4.13891C14.363 4.15512 14.3468 4.17453 14.3549 4.24248C14.3549 4.26189 14.3387 4.28291 14.3229 4.32984C14.2745 4.46253 14.1822 4.68259 14.1309 4.79427C14.0597 4.94627 13.9789 5.07416 13.9389 5.15341C13.8989 5.23267 13.8109 5.44141 13.7237 5.55309C13.6366 5.66477 13.591 5.73272 13.5637 5.75704C13.5364 5.78136 13.3404 5.92525 13.355 5.97709C13.3906 5.96579 13.6156 5.88109 13.7789 5.6972C13.9422 5.51331 13.9747 5.40109 14.1025 5.30072C14.2303 5.20035 14.3307 5.03213 14.3905 4.89304C14.4406 4.76355 14.4293 4.72312 14.4924 4.60824V4.60824L14.492 4.60792Z" fill="#806031"/>
<path fill-rule="evenodd" clip-rule="evenodd" d="M8.63276 7.1198C8.63276 7.1198 8.59713 7.267 8.51617 7.33986C8.43692 7.41111 8.29612 7.47255 8.28001 7.59234C8.2606 7.71202 8.42081 7.77196 8.42081 7.77196C8.42081 7.77196 8.33335 7.91596 8.33335 8.02434C8.33335 8.13602 8.33015 8.15703 8.34145 8.2638C8.32862 8.27206 8.31771 8.28297 8.30945 8.2958C8.30945 8.2958 8.31745 8.39938 8.39681 8.46402C8.47617 8.52866 8.54401 8.56759 8.58444 8.55138C8.59061 8.56457 8.59603 8.5781 8.60065 8.59191C8.60065 8.59191 8.6606 8.4398 8.70103 8.30711C8.74145 8.17122 8.77708 8.19052 8.79319 8.0077C8.80929 7.82487 8.98519 7.51095 8.98519 7.51095L9.10519 7.24268L8.90945 7.09058L8.63276 7.1197V7.1198Z" fill="#B6903C"/>
<path fill-rule="evenodd" clip-rule="evenodd" d="M8.99678 7.38354C8.95641 7.42498 8.91916 7.46933 8.88531 7.51624C8.83358 7.58749 8.79315 7.65213 8.7171 7.67976C8.64104 7.70738 8.59251 7.70717 8.59731 7.78333C8.60211 7.85949 8.67336 7.8917 8.71379 7.93053C8.75752 7.97096 8.79315 8.0389 8.77374 8.11506C8.79795 8.10376 8.84168 8.09074 8.88211 8.00338C8.92254 7.91602 9.20531 7.38365 9.20531 7.38365H8.99678V7.38354Z" fill="#685026"/>
<path fill-rule="evenodd" clip-rule="evenodd" d="M10.112 6.15526C10.112 6.15526 10.1362 6.09062 10.112 6.04369C10.0877 5.99515 9.94046 5.97894 9.86761 5.9239C9.79155 5.86726 9.69929 5.8279 9.62323 5.85275C9.63454 5.82523 9.67987 5.76529 9.64265 5.75238C9.60702 5.74107 9.47443 5.80091 9.43881 5.82843C9.40318 5.85595 9.32222 5.88827 9.30611 5.90779C9.29001 5.92731 9.26238 5.96443 9.24617 5.94822C9.22995 5.93691 9.22195 5.90779 9.19443 5.9239C9.16691 5.94001 9.03443 6.04849 9.01001 6.11163C8.98558 6.17478 8.93065 6.31558 8.76563 6.47569C8.60062 6.63579 8.52937 6.73947 8.5779 6.79931C8.62643 6.85915 8.64915 6.81553 8.65726 6.86726C8.6635 6.91805 8.66075 6.96953 8.64915 7.01937C8.62974 7.10353 8.59742 7.18278 8.64105 7.19899C8.75273 7.23462 8.86121 7.16699 8.88542 7.18769C8.93395 7.23131 8.8579 7.38833 8.97278 7.41905C9.08937 7.45105 9.20425 7.39153 9.20425 7.39153L9.62814 7.16337L10.0359 6.94822L10.2446 6.53553L10.1327 6.19089L10.1113 6.15526H10.112Z" fill="#D4B968"/>
<path fill-rule="evenodd" clip-rule="evenodd" d="M9.71199 7.1409C9.71199 7.1409 9.64074 7.03253 9.7282 6.93695C9.81567 6.84138 9.94015 6.80106 9.98868 6.74122C9.97945 6.72982 9.96705 6.7214 9.95306 6.71701C9.98527 6.65936 10.0344 6.613 10.0939 6.58421C10.0696 6.55999 10.0372 6.54058 10.0017 6.54058C9.92234 6.54058 9.8737 6.58911 9.80095 6.58911C9.7298 6.58911 9.7217 6.55349 9.7217 6.55349C9.7217 6.55349 9.84148 6.54218 9.83007 6.48874C9.81876 6.4321 9.79807 6.4321 9.79807 6.4321C9.79807 6.4321 10.0294 6.3361 10.0699 6.2849C10.1103 6.2337 10.1055 6.17322 10.1136 6.14901C10.141 6.14901 10.3012 6.06485 10.366 6.10047C10.4307 6.1361 10.3854 6.23317 10.3854 6.23317C10.3854 6.23317 10.5813 6.08586 10.6812 5.94143C10.7685 5.94954 10.8092 5.88159 10.8732 5.88159C10.9525 5.88159 11.0771 5.98997 11.1013 6.22133C11.1175 6.35402 11.1418 6.43007 11.1175 6.66474C11.1062 6.79743 11.1094 7.08074 11.1495 7.22133C11.177 7.33301 11.2417 7.3217 11.2417 7.3217C11.2318 7.35573 11.2121 7.3861 11.1851 7.40906C11.1413 7.44949 11.1365 7.55637 11.1413 7.59679C11.1478 7.62635 11.1559 7.65552 11.1656 7.68415C11.1656 7.68415 11.1139 7.74399 11.1009 7.78453C11.0896 7.82495 11.0363 7.85247 10.9973 7.85247C10.9584 7.85247 10.9779 7.84917 10.9262 7.85247C10.8744 7.85578 10.8582 7.86378 10.8258 7.85247C10.7934 7.84117 10.7692 7.82815 10.7822 7.72447C10.7935 7.6209 10.3825 7.37983 10.3825 7.37983L9.7105 7.14037V7.14037L9.71199 7.1409Z" fill="#CCA849"/>
<path fill-rule="evenodd" clip-rule="evenodd" d="M8.94017 8.16354C8.94017 8.16354 9.08737 8.35938 9.6926 8.35938C9.9806 8.35938 10.081 8.33186 10.1406 8.31564C10.2053 8.29943 10.448 8.20407 10.6924 7.91596C10.9124 7.65548 10.8639 7.54871 10.8639 7.54871L10.7359 7.5293L10.3199 7.58594L9.08897 8.1102L8.93964 8.16354H8.94017Z" fill="#585136"/>
<path fill-rule="evenodd" clip-rule="evenodd" d="M9.39158 8.21196C9.39158 8.21196 8.86731 8.32855 8.86731 7.99681C8.86731 7.67319 9.19094 7.33335 9.2719 7.27351C9.35606 7.21356 9.5567 7.14551 9.5567 7.14551H10.0405L10.1327 7.38988L10.0923 7.91735L9.39158 8.21185V8.21196Z" fill="#252211"/>
<path fill-rule="evenodd" clip-rule="evenodd" d="M9.87542 7.24437C9.87542 7.24437 9.77515 7.15211 9.54699 7.27637C9.31883 7.40064 9.1343 7.66037 9.12299 7.89621C9.11169 8.10485 9.29451 8.26027 9.57931 8.26837C9.79126 8.27637 9.91915 8.25216 9.9839 8.23637C9.96769 8.21696 9.88353 8.11179 9.88353 8.11179L9.87553 7.24448V7.24448L9.87542 7.24437Z" fill="#C3B378"/>
<path fill-rule="evenodd" clip-rule="evenodd" d="M9.77676 7.29611C9.77676 7.29611 9.75255 7.2767 9.68076 7.31553C9.62092 7.34753 9.53356 7.43211 9.46562 7.49195C9.42188 7.52758 9.39436 7.54369 9.36962 7.57121C9.26924 7.69099 9.18508 7.88683 9.23372 7.9839C9.28236 8.08097 9.44247 8.19265 9.85026 8.11659L9.77559 7.29622V7.29622L9.77676 7.29611Z" fill="#E6D89C"/>
<path fill-rule="evenodd" clip-rule="evenodd" d="M9.64403 7.49684C9.64403 7.49684 9.57929 7.59722 9.57929 7.75743C9.57929 7.92084 9.67155 8.18132 10.0114 8.20074C10.2719 8.21695 10.4466 7.82538 10.6359 7.67327C10.7799 7.55679 10.8673 7.55348 10.8673 7.55348C10.8673 7.55348 10.7201 7.39348 10.3269 7.18623C9.93854 6.97748 9.50323 6.94996 9.26697 7.27039C9.37865 7.26228 9.7395 7.17002 9.7395 7.17002L9.91593 7.22666L9.64403 7.49695V7.49695V7.49684Z" fill="#252211"/>
<path fill-rule="evenodd" clip-rule="evenodd" d="M10.1521 7.70863C10.1408 7.68442 10.1327 7.65199 10.1796 7.64399C10.2266 7.63599 10.2476 7.64069 10.2638 7.67599C10.28 7.7113 10.2958 7.74074 10.2718 7.75535C10.2476 7.76826 10.1844 7.75535 10.152 7.70842L10.1521 7.70863ZM10.0761 7.48048C10.0761 7.48048 10.0598 7.49179 10.0679 7.46918C10.0711 7.44176 10.0923 7.39312 10.144 7.40454C10.1957 7.41595 10.1845 7.47248 10.176 7.4887C10.1675 7.50491 10.1243 7.53232 10.0918 7.5207C10.0835 7.51856 10.0767 7.51258 10.0735 7.5046C10.0703 7.49661 10.0711 7.48757 10.0756 7.48027L10.0761 7.48048Z" fill="#6F674D"/>
<path fill-rule="evenodd" clip-rule="evenodd" d="M5.69598 7.58395C5.69598 7.58395 5.82398 7.67995 5.97268 7.67621C6.11988 7.67291 6.30921 7.52091 6.39657 7.42373C6.4483 7.36709 6.49257 7.30725 6.54057 7.26032C6.5811 7.21989 6.60852 7.20048 6.62793 7.17296C6.65545 7.14096 6.68457 7.0808 6.69918 7.06128C6.66356 7.0888 6.61182 7.13744 6.55838 7.16976C6.50665 7.20176 6.39497 7.26192 6.34964 7.27813C6.30601 7.29435 5.85289 7.53413 5.85289 7.53413L5.69598 7.58395V7.58395Z" fill="#AC924C"/>
<path fill-rule="evenodd" clip-rule="evenodd" d="M5.8916 6.38844C5.8916 6.38844 5.96275 6.33991 6.10035 6.30908C6.23304 6.27708 6.50003 6.25244 6.50003 6.25244L6.72008 6.34844L6.80744 6.68017L6.64744 7.02492L6.4436 7.15292L6.21213 6.78076L5.89213 6.38908V6.38908L5.8916 6.38844Z" fill="#9F8E57"/>
<path fill-rule="evenodd" clip-rule="evenodd" d="M5.60363 6.68438L5.52747 6.74123C5.52747 6.74123 5.54699 6.70561 5.56309 6.59723C5.5792 6.48886 5.66347 6.22507 5.78645 6.07297C5.90944 5.92086 5.90624 5.92897 5.90624 5.92897C5.88335 5.92478 5.85976 5.93065 5.84149 5.94507C5.85771 5.90923 5.96128 5.78123 6.06485 5.71723C6.16843 5.65323 6.20885 5.63307 6.31723 5.68523C6.4256 5.73739 6.45312 5.76449 6.53248 5.76129C6.61184 5.75809 6.67968 5.67393 6.67968 5.67393C6.67968 5.67393 6.69589 5.72566 6.63605 5.84545C6.57621 5.96523 6.33995 6.2095 6.33995 6.2095L5.848 6.54603L5.60363 6.6847V6.6847V6.68438Z" fill="#EAC970"/>
<path fill-rule="evenodd" clip-rule="evenodd" d="M5.96759 6.34787C5.96759 6.34787 6.32364 6.3964 6.43202 6.29613C6.43522 6.30744 6.44823 6.30744 6.44823 6.31555C6.44736 6.32166 6.44451 6.32731 6.44012 6.33165C6.45191 6.32977 6.46381 6.3287 6.47575 6.32845C6.49 6.33269 6.50466 6.33541 6.51948 6.33656C6.53142 6.3363 6.54333 6.3352 6.55511 6.33325C6.55284 6.3495 6.54406 6.36413 6.53079 6.37379C6.547 6.37379 6.56279 6.37699 6.56279 6.38989C6.56279 6.4028 6.56599 6.44173 6.54658 6.44984C6.53049 6.45429 6.51337 6.45312 6.49804 6.44653C6.49933 6.47717 6.50765 6.5071 6.52236 6.534C6.55436 6.59384 6.62263 6.662 6.71436 6.64237C6.71436 6.64237 6.76279 6.75885 6.55895 7.01773C6.53154 7.05336 6.50231 7.10189 6.46679 7.14232C6.45276 7.17291 6.44203 7.20491 6.43479 7.23779C6.43479 7.23779 6.77954 7.10509 6.8782 6.80248C6.97858 6.49827 6.99799 6.19896 6.97858 5.91907C6.97527 5.83971 6.96236 5.78317 6.94295 5.74264C6.89442 5.64227 6.75842 5.65848 6.70348 5.71512C6.62412 5.79448 6.49143 5.99181 6.307 6.12771C6.11927 6.2636 6.11127 6.28771 5.96716 6.34787V6.34787H5.96759Z" fill="#D7BC6B"/>
<path fill-rule="evenodd" clip-rule="evenodd" d="M5.54049 6.78479C5.54049 6.78479 5.47255 6.82522 5.43692 6.97679C5.40129 7.1321 5.46892 7.32143 5.50807 7.38127C5.54721 7.44111 5.63607 7.60463 5.82039 7.61274C5.86601 7.6125 5.91112 7.60314 5.95308 7.58522C6.01743 7.55571 6.07778 7.51819 6.13271 7.47354C6.21207 7.4137 6.27671 7.36197 6.2686 7.35706C6.24919 7.34895 5.77996 6.96058 5.77996 6.96058L5.60353 6.76367L5.54039 6.78501L5.54049 6.78479Z" fill="#585136"/>
<path fill-rule="evenodd" clip-rule="evenodd" d="M5.98401 7.42868C5.98401 7.42868 6.07948 7.42068 6.13612 7.38505C6.19276 7.34942 5.80438 6.96436 5.80438 6.96436L5.8319 7.38036L5.98401 7.42868Z" fill="#453A25"/>
<path fill-rule="evenodd" clip-rule="evenodd" d="M5.57119 6.75553C5.57119 6.75553 5.52266 6.8478 5.52266 6.87212C5.51455 6.95137 5.53887 7.20055 5.55829 7.2798C5.5777 7.36396 5.68287 7.49175 5.81887 7.49175C5.90293 7.49175 6.01951 7.44001 6.01951 7.42711C6.01951 7.41089 5.89973 7.39511 5.86741 7.33484C5.84799 7.30284 5.83989 7.22327 5.83541 7.14284C5.83221 7.09111 5.83221 7.03447 5.85162 7.01484C5.89535 6.96631 5.90335 6.82711 5.90335 6.82711L6.05866 6.53857H5.85439L5.61002 6.69068L5.57119 6.75553Z" fill="#84754B"/>
<path fill-rule="evenodd" clip-rule="evenodd" d="M5.51135 6.84478C5.51135 6.84478 5.67135 6.63284 5.81557 6.5842C5.95978 6.53556 6.02431 6.56478 6.02431 6.56478L5.94015 6.78004L5.82037 6.91273L5.82847 6.98068C5.82847 6.98068 5.80895 7.1603 5.92874 7.28489C6.04853 7.40948 6.13749 7.40468 6.18933 7.40468C6.24117 7.40468 6.38997 7.36094 6.46602 7.18132C6.53397 7.0131 6.59061 6.79732 6.45471 6.581C6.32191 6.36574 6.08735 6.35742 6.04202 6.35742C5.99669 6.35742 5.64074 6.37524 5.51135 6.84446V6.84446V6.84478Z" fill="#252211"/>
<path fill-rule="evenodd" clip-rule="evenodd" d="M9.6197 7.56461C9.55986 7.53709 9.6165 7.36888 9.67634 7.31704C9.73618 7.2652 9.81224 7.20546 9.94504 7.19725C9.99346 7.19405 10.0404 7.22477 10.0324 7.2572C10.0211 7.31704 9.93693 7.4012 9.86088 7.46104C9.7557 7.5436 9.68765 7.59533 9.6197 7.56461Z" fill="#F7F7E7"/>
<path fill-rule="evenodd" clip-rule="evenodd" d="M6.38348 6.64717C6.42721 6.64397 6.48385 6.67917 6.49516 6.72653C6.50647 6.77827 6.46764 6.88184 6.38348 6.88184C6.31553 6.88184 6.27991 6.79768 6.27991 6.77347C6.28067 6.75356 6.28623 6.73413 6.29612 6.71683C6.29932 6.71192 6.30743 6.65528 6.38348 6.64717V6.64717Z" fill="#F8F6DE"/>
<path fill-rule="evenodd" clip-rule="evenodd" d="M5.75241 6.68457C5.75241 6.68457 5.64073 6.7363 5.589 6.84457C5.55204 6.92452 5.54085 7.01398 5.557 7.10057C5.56511 7.141 5.60553 7.24126 5.63305 7.27689C5.66057 7.31252 5.6978 7.33684 5.72532 7.33353C5.75284 7.33022 5.80937 7.25748 5.80937 7.21385C5.80937 7.17022 5.81268 6.98569 5.86601 6.88532C5.91295 6.78505 5.75273 6.68468 5.75273 6.68468V6.68468L5.75241 6.68457Z" fill="#D4C38B"/>
<path fill-rule="evenodd" clip-rule="evenodd" d="M5.76861 6.67637C5.7492 6.68767 5.71688 6.70389 5.72488 6.7249C5.73299 6.74431 5.80093 6.7569 5.82525 6.80426C5.85277 6.85279 5.85277 6.90453 5.84467 6.92885C5.8658 6.91881 5.88498 6.90508 5.90131 6.88831C5.93693 6.84789 5.98056 6.79295 6.01779 6.79295C6.04211 6.79295 6.06632 6.80426 6.08904 6.80426C6.12467 6.80426 6.16019 6.79295 6.16509 6.75573C6.17309 6.70719 6.09715 6.66346 6.05341 6.67157C6.06152 6.63957 6.07283 6.59231 6.0372 6.55989C6.00157 6.52746 5.89 6.58421 5.86568 6.60042C5.84136 6.61663 5.76861 6.67647 5.76861 6.67647V6.67647V6.67637Z" fill="#E2D59D"/>
<path fill-rule="evenodd" clip-rule="evenodd" d="M8.33986 10.0761L8.57932 10.0054L8.64727 10.0539C8.64727 10.0539 8.6957 10.1575 8.77186 10.1704C8.74754 10.2221 8.68439 10.2664 8.6877 10.3031C8.691 10.3398 8.72332 10.3678 8.72332 10.3678C8.72332 10.3678 8.50807 10.7238 8.93207 11.0825C8.8317 11.1229 8.70391 11.1785 8.63596 11.2105C8.68439 11.2218 8.78796 11.2425 8.8317 11.2817C8.87543 11.321 8.87543 11.3335 8.91586 11.3578C8.95628 11.3821 8.9805 11.4144 8.9725 11.4289C8.94498 11.4127 8.85271 11.3643 8.8366 11.4095C8.8205 11.4548 8.43692 11.4371 8.43692 11.4371L7.78967 11.5616C7.78967 11.5616 7.81388 11.4969 7.74594 11.4371C7.66668 11.3659 7.56962 11.4403 7.46604 11.361C7.33015 11.2574 7.32524 11.1376 7.28162 11.0924C7.32524 11.0649 7.41431 11.0245 7.62626 10.9964C7.61815 10.9802 7.59063 10.9317 7.60684 10.888C7.62626 10.8314 7.70711 10.7958 7.6829 10.728C7.71852 10.7199 7.73463 10.7199 7.8237 10.6083C7.90786 10.4966 7.95959 10.4724 8.02434 10.4643C8.08908 10.4561 8.12791 10.4643 8.2477 10.3526C8.33175 10.2733 8.30434 10.2054 8.30434 10.2054C8.30434 10.2054 8.35927 10.1876 8.33996 10.0759V10.0759L8.33986 10.0761Z" fill="#CBAC5A"/>
<path fill-rule="evenodd" clip-rule="evenodd" d="M7.63276 10.112C7.63596 10.0958 7.64897 10.0877 7.73633 10.0958C7.82369 10.1039 8.37708 10.044 8.52759 10.0359C8.67969 10.0246 9.21527 10.0326 9.47585 10.0877C9.73644 10.1427 10.0001 10.2074 10.1279 10.2398C10.2559 10.2754 10.2962 10.2882 10.2913 10.3044C10.2881 10.3206 10.2593 10.3364 10.2428 10.3319C10.2267 10.3287 9.80268 10.1992 9.67169 10.1719C9.54071 10.1446 9.08748 10.0715 8.83969 10.0759C8.60833 10.0792 8.51607 10.0727 8.32033 10.0953C8.12449 10.1197 7.80087 10.152 7.7038 10.1391C7.6078 10.1278 7.62764 10.1278 7.63255 10.1115V10.1115L7.63276 10.112Z" fill="#D6BC6F"/>
<path fill-rule="evenodd" clip-rule="evenodd" d="M8.93523 11.3802C8.93523 11.3802 9.26696 11.5598 9.38675 11.7799C9.47411 11.9433 9.33502 12.0242 9.33502 12.0242C9.33502 12.0242 9.52275 12.0242 9.49843 12.1278C9.48712 12.1925 9.1748 12.3672 8.96606 12.4594C8.75411 12.5517 8.76222 12.5469 8.65864 12.563C8.55827 12.5792 8.28318 12.531 8.22654 12.6116C8.1699 12.6921 8.19454 12.7751 8.21032 12.788C8.22654 12.7993 8.35763 12.8155 8.35763 12.8155C8.35763 12.8155 8.33011 12.8916 8.05832 12.8997C7.78654 12.9078 7.71848 12.9271 7.70227 12.9563C7.68606 12.9837 7.754 12.9676 7.8787 12.9883C8.00328 13.0077 8.178 13.0203 8.178 13.0203C8.178 13.0203 8.12136 13.0688 7.97416 13.1077C7.80584 13.1513 7.54206 13.1918 7.4628 13.2404C7.50323 13.2679 7.56318 13.3083 7.5908 13.3115C7.52286 13.3277 7.42728 13.3633 7.41118 13.3762C7.43539 13.3925 7.46782 13.4119 7.46782 13.4119C7.46782 13.4119 7.33182 13.5753 7.25256 13.6158C7.17331 13.6564 6.71699 13.8682 6.55998 13.8278C6.1684 13.7242 6.11987 13.2954 6.0244 13.2631C5.8804 13.2145 5.81246 13.3115 5.68456 13.2436C5.7412 13.2031 5.77203 13.1789 5.83187 13.1514C5.76712 13.1194 5.43219 12.907 5.43219 12.907C5.39716 12.8307 5.35829 12.7562 5.31571 12.6838C5.25096 12.5721 5.15571 12.4232 5.08424 12.2921C4.92894 12.0041 4.92083 11.8714 4.78003 11.708C4.80435 11.676 4.8884 11.6805 4.8884 11.6805L6.06814 12.0688L8.15998 12.1294L8.70398 11.3528L8.93534 11.3803L8.93523 11.3802Z" fill="#DFC677"/>
<path fill-rule="evenodd" clip-rule="evenodd" d="M5.83661 12.5647C5.84923 12.5787 5.86395 12.5907 5.88024 12.6003C5.92077 12.6278 5.98061 12.6602 6.02104 12.7087C6.03725 12.6845 6.07768 12.6407 6.14904 12.7087C6.2204 12.7766 6.30904 12.7282 6.36418 12.7443C6.42082 12.7638 6.42402 12.7718 6.42402 12.7718C6.42402 12.7718 6.45602 12.7443 6.5276 12.7152C6.57133 12.699 6.62306 12.6877 6.6797 12.6715C6.73144 12.6602 6.78808 12.644 6.82701 12.644C6.86264 12.6682 6.99042 12.804 7.50338 12.6036C7.98722 12.4159 8.0988 12.3949 8.17976 12.4239C8.18786 12.4045 8.19597 12.3672 8.32056 12.3721C8.32056 12.3204 8.21698 12.144 8.21698 12.144L7.64578 11.9482H7.33336L6.3965 12.1198L5.87736 12.416L5.83693 12.5653L5.83661 12.5647Z" fill="#C4A859"/>
<path fill-rule="evenodd" clip-rule="evenodd" d="M5.52429 12.2364C5.52429 12.2364 5.5356 12.3237 5.66509 12.416C5.79309 12.5082 5.83331 12.5632 5.83331 12.5632C5.83331 12.5632 5.85763 12.5312 5.87704 12.4986C5.89645 12.4629 5.91267 12.4225 5.94499 12.4112C6.00973 12.3837 6.15693 12.4354 6.18936 12.4273C6.21688 12.4193 6.20877 12.3627 6.23789 12.3627C6.30584 12.3594 6.34947 12.4063 6.37379 12.4063C6.39811 12.4063 6.45784 12.4031 6.46595 12.3902C6.47405 12.3773 6.47725 12.2429 6.56952 12.1781C6.66989 12.107 6.79288 12.1377 6.82552 12.1539C6.82552 12.1781 6.82872 12.2381 6.89347 12.2413C6.95821 12.2445 6.96461 12.2332 7.02147 12.2526C7.07832 12.272 7.14605 12.2494 7.17677 12.3447C7.20429 12.3367 7.26904 12.3286 7.25283 12.2364C7.28483 12.2122 7.31277 12.1959 7.38083 12.1005C7.39704 12.0763 7.42445 12.0487 7.44557 12.0131C7.50221 12.0131 7.57016 12.0018 7.66072 12.0811C7.6332 12.1005 7.61699 12.1131 7.60899 12.1328C7.63267 12.1562 7.6543 12.1817 7.67363 12.2088C7.69795 12.2408 7.71416 12.2801 7.74488 12.2882C7.81283 12.3076 7.92451 12.2801 8.04909 12.2882C8.16888 12.2963 8.26915 12.3399 8.31288 12.3675C8.32909 12.3595 8.32909 12.3562 8.36952 12.3643C8.40995 12.3724 8.44067 12.3756 8.39704 12.3238C8.42125 12.3351 8.44877 12.3595 8.47309 12.3351C8.49741 12.3108 8.51672 12.2753 8.58467 12.2672C8.65261 12.2591 8.67693 12.2704 8.70445 12.1992C8.74008 12.1119 8.61709 12.1119 8.61709 12.1119C8.61709 12.1119 8.67373 12.06 8.73688 11.9921C8.81293 11.921 8.90029 11.8287 8.92131 11.7154C8.95693 11.5067 8.75309 11.4792 8.75309 11.4792L7.7644 11.7835L6.55565 11.7235L5.52493 12.2365V12.2365L5.52429 12.2364Z" fill="#927D49"/>
<path fill-rule="evenodd" clip-rule="evenodd" d="M4.63593 9.38015C4.63593 9.38015 4.60393 9.42058 4.58419 9.51605C4.56446 9.61151 4.57289 9.60021 4.55667 9.66815C4.54046 9.7361 4.34131 10.4125 4.41598 10.6406C4.49065 10.8688 4.61993 10.953 4.70078 11.1374C4.71699 11.1778 4.73278 11.2021 4.74121 11.2378C4.76873 11.3574 4.74451 11.4497 4.77683 11.5695C4.78814 11.6099 4.81737 11.6568 4.86099 11.7054C4.95699 11.8056 5.11347 11.9011 5.18099 11.9691C5.27635 12.0694 5.41235 12.2734 5.58547 12.2927C5.67774 12.304 5.80883 12.2652 5.91721 12.2005C6.01321 12.1406 6.07251 12.0565 6.17321 12.0085C6.24435 11.9729 6.32041 11.96 6.38835 11.9438C6.52915 11.9163 6.65705 11.9118 6.7331 11.9276C6.84958 11.9519 7.12467 12.036 7.2771 12.036C7.39621 12.0341 7.51465 12.0178 7.62985 11.9875C7.86121 11.9196 8.1411 11.803 8.32563 11.7512C8.43401 11.7192 8.52137 11.7108 8.61043 11.6914C8.76254 11.6558 8.89033 11.6072 8.96318 11.515C8.91465 11.4583 8.85481 11.371 8.53107 11.3742C8.16382 11.3823 7.73982 11.5861 7.53107 11.6186C7.32233 11.651 7.23177 11.6784 6.9987 11.5942C6.77022 11.5092 6.76265 11.453 6.76265 11.453C6.76265 11.453 6.52275 11.2852 6.42238 10.8575C6.32201 10.4298 6.42238 10.1181 6.68297 9.82186C6.75091 9.74581 6.7347 9.67786 6.7347 9.67786C6.7347 9.67786 6.90622 9.4465 6.85929 9.22986C6.80755 9.01461 6.47582 9.05834 6.47582 9.05834L4.63603 9.38015V9.38015H4.63593Z" fill="#6E6342"/>
<path fill-rule="evenodd" clip-rule="evenodd" d="M4.91264 10.1003C4.89837 10.1272 4.89166 10.1574 4.89323 10.1877C4.89643 10.2313 4.90944 10.288 5.04043 10.4159C5.15211 10.5274 5.12779 10.652 5.12779 10.652C5.12779 10.652 5.184 10.6633 5.33653 10.592C5.45632 10.5353 5.49653 10.6357 5.49653 10.6357C5.5314 10.6174 5.5692 10.6054 5.60821 10.6001C5.64356 10.5968 5.67778 10.5859 5.70848 10.5681C5.70848 10.5681 5.84928 10.7121 5.97227 10.78C6.08395 10.84 6.14869 10.8804 6.20373 10.84C6.25547 10.8043 6.25547 10.7315 6.25216 10.6992C6.23933 10.6693 6.22307 10.6411 6.20373 10.615C6.16811 10.5633 6.11147 10.5033 6.10773 10.455C6.09963 10.3434 6.19189 10.2106 6.17237 10.1783C6.15285 10.146 6.08021 10.1379 5.90059 10.2026C5.71456 10.2641 4.91189 10.1007 4.91189 10.1007V10.1007L4.91264 10.1003Z" fill="#39331F"/>
<path fill-rule="evenodd" clip-rule="evenodd" d="M5.33655 10.8237C5.33655 10.8237 5.24439 10.7363 5.27671 10.3123C5.31584 10.3117 5.3549 10.3155 5.39319 10.3236C5.39319 10.3236 5.44343 10.6522 5.33655 10.8237Z" fill="#292311"/>
<path fill-rule="evenodd" clip-rule="evenodd" d="M4.67969 9.05662C4.69255 9.04711 4.70447 9.03639 4.71531 9.02462C4.68331 9.08446 4.53558 9.32393 4.65537 9.701C4.77515 10.0764 5.07606 10.3563 5.44662 10.3693C5.81718 10.3823 6.01195 10.2009 6.23467 9.92916C6.32203 9.82078 6.42241 9.68478 6.51137 9.59262C6.64406 9.44852 6.74763 9.40809 6.74763 9.269C6.74763 8.9842 6.45633 8.8563 6.02753 8.72852C5.59873 8.60073 5.21195 8.61652 5.01131 8.70398C4.81558 8.79934 4.73142 8.89972 4.67958 9.05673V9.05673L4.67969 9.05662Z" fill="#252211"/>
<path fill-rule="evenodd" clip-rule="evenodd" d="M6.05666 10.9514L6.08866 10.9352C6.08866 10.9352 6.09666 10.8072 6.1485 10.8106C6.20023 10.8187 6.22455 10.8868 6.21964 10.911C6.21644 10.9352 6.20354 10.9757 6.1517 10.9708C6.08375 10.9724 6.05634 10.9514 6.05634 10.9514H6.05666Z" fill="#3F3824"/>
<path fill-rule="evenodd" clip-rule="evenodd" d="M5.91266 10.4078C5.91266 10.4078 5.94466 10.3965 5.98381 10.4353C6.01581 10.4353 6.15533 10.4191 6.19906 10.4466C6.24279 10.4741 6.2557 10.4983 6.2557 10.4983C6.2557 10.4983 6.09229 10.534 6.00322 10.4983C5.91266 10.4676 5.91266 10.4078 5.91266 10.4078H5.91266Z" fill="#2D2815"/>
<path fill-rule="evenodd" clip-rule="evenodd" d="M6.63273 10.4321C6.63273 10.424 6.54537 10.3641 6.4531 10.3446C6.43689 10.3414 6.43358 10.3527 6.4211 10.3527C6.413 10.3495 6.4098 10.3252 6.4098 10.3252L6.35732 10.3528C6.35732 10.3528 6.34921 10.3641 6.37673 10.3848C6.40094 10.4042 6.44148 10.4204 6.45278 10.4528C6.46409 10.4851 6.46409 10.4964 6.469 10.5013C6.4722 10.5045 6.52884 10.5013 6.55636 10.4851C6.58388 10.4689 6.63572 10.4424 6.63241 10.4318V10.4318L6.63273 10.4321Z" fill="#82764F"/>
<path fill-rule="evenodd" clip-rule="evenodd" d="M5.81555 10.7605C5.81555 10.7605 5.83166 10.6489 5.94014 10.644C6.05171 10.6359 6.07283 10.7443 6.07283 10.7443L6.00809 10.809C6.00809 10.8074 5.95955 10.7395 5.81609 10.7605H5.81555Z" fill="#2D2816"/>
<path fill-rule="evenodd" clip-rule="evenodd" d="M6.51948 10.28C6.51948 10.28 6.45953 10.3447 6.32695 10.3641C6.31564 10.3479 6.29132 10.3156 6.32695 10.2639C6.36257 10.2121 6.403 10.1959 6.44343 10.212C6.47985 10.2179 6.50953 10.2444 6.51948 10.28Z" fill="#574F35"/>
<path fill-rule="evenodd" clip-rule="evenodd" d="M6.76374 10.3592C6.76705 10.343 6.75574 10.3398 6.76374 10.3317C6.77174 10.3236 6.81558 10.3075 6.82369 10.3155C6.82689 10.3188 6.82369 10.3317 6.82369 10.3475C6.82369 10.3632 6.82369 10.3795 6.81558 10.3911C6.80427 10.4073 6.77195 10.4154 6.75574 10.4106C6.73953 10.4058 6.73633 10.3831 6.73633 10.3786C6.74433 10.3754 6.76374 10.3673 6.76374 10.3592ZM7.04 10.1845C7.04 10.1764 7.06752 10.1602 7.08373 10.1602C7.10795 10.1602 7.10795 10.1796 7.11125 10.1845C7.11925 10.1877 7.11925 10.1812 7.12736 10.1958C7.13547 10.2104 7.14688 10.2362 7.13867 10.2524C7.13045 10.2686 7.09824 10.2798 7.09024 10.2766C7.07893 10.2685 7.04331 10.1958 7.04 10.1845V10.1845Z" fill="#82764F"/>
<path fill-rule="evenodd" clip-rule="evenodd" d="M6.48383 10.3966C6.48383 10.3966 6.51945 10.4046 6.56799 10.4451C6.55177 10.4564 6.52745 10.4693 6.52745 10.4693C6.52745 10.4693 6.52425 10.4321 6.48383 10.3965V10.3966Z" fill="#6E6342"/>
<path fill-rule="evenodd" clip-rule="evenodd" d="M6.4046 10.0405C6.39649 10.0325 6.42881 10.0131 6.44823 10.0163C6.46764 10.0195 6.47575 10.0325 6.49676 10.0357C6.51777 10.0389 6.52108 10.0276 6.52876 10.0195C6.53644 10.0114 6.56439 10.0163 6.56919 10.0195C6.57218 10.023 6.57489 10.0268 6.57729 10.0308C6.57798 10.0183 6.58381 10.0067 6.5934 9.99878C6.60597 9.98954 6.62208 9.98656 6.63713 9.99068C6.64033 10.002 6.65655 10.0424 6.65335 10.0505C6.65015 10.0586 6.60161 10.07 6.5934 10.0618C6.60151 10.0813 6.63713 10.1218 6.64193 10.1298C6.64673 10.1378 6.60631 10.1573 6.5902 10.1541C6.56759 10.1525 6.42839 10.0715 6.40417 10.0408L6.4046 10.0405ZM6.61655 9.7719C6.61355 9.76375 6.60782 9.75689 6.60033 9.75249C6.58903 9.74929 6.5518 9.75249 6.5518 9.7719C6.5518 9.79131 6.5838 9.8999 6.61975 9.95643C6.66028 10.0131 6.68769 10.0599 6.71521 10.0729C6.73314 10.0811 6.75432 10.074 6.76375 10.0567C6.76695 10.0486 6.77505 9.98875 6.77185 9.84795C6.76865 9.70715 6.76375 9.57126 6.75564 9.56315C6.74753 9.55505 6.71521 9.55515 6.70391 9.57126C6.6926 9.58737 6.61975 9.74769 6.61644 9.7719V9.7719H6.61655Z" fill="#585136"/>
<path fill-rule="evenodd" clip-rule="evenodd" d="M6.47251 10.6004C6.47251 10.6004 6.41587 10.5647 6.36083 10.5891C6.30909 10.6134 6.31229 10.7088 6.31229 10.7088C6.33592 10.7181 6.3626 10.7151 6.38355 10.7007C6.41917 10.6765 6.4644 10.6361 6.47251 10.6005V10.6004Z" fill="#574F35"/>
<path fill-rule="evenodd" clip-rule="evenodd" d="M6.5793 10.7283C6.5761 10.6963 6.5473 10.6963 6.5473 10.6798C6.55138 10.6635 6.56605 10.6522 6.58282 10.6523C6.59904 10.6523 6.61482 10.6717 6.63466 10.6843C6.65408 10.6956 6.6832 10.7163 6.6864 10.7409C6.6896 10.7655 6.6544 10.8331 6.61525 10.8331C6.5761 10.8331 6.58773 10.7602 6.57962 10.7279L6.5793 10.7283ZM6.89162 10.6846C6.89162 10.6846 6.82688 10.704 6.83168 10.6846C6.83648 10.6652 6.8512 10.6604 6.87221 10.6604C6.88289 10.6492 6.89724 10.6423 6.91264 10.6409C6.92144 10.6404 6.93008 10.6433 6.93685 10.649C6.93685 10.649 6.98058 10.6295 6.99349 10.6409C7.0064 10.6522 6.9968 10.6522 7.0048 10.6652C7.01498 10.6796 7.02167 10.6962 7.02432 10.7137C7.02432 10.7266 6.97578 10.7541 6.93685 10.7493C6.89162 10.7396 6.89962 10.6927 6.89162 10.6846V10.6846ZM7.26859 10.6117C7.26859 10.6117 7.288 10.623 7.2719 10.6361C7.26059 10.6474 7.20395 10.6681 7.15531 10.6717C7.10678 10.6717 7.06315 10.6797 7.06315 10.6636C7.06315 10.6475 7.10358 10.615 7.12779 10.6069C7.13763 10.5946 7.15256 10.5875 7.16832 10.5875C7.18774 10.5875 7.26368 10.5794 7.2848 10.5762C7.30422 10.5729 7.32043 10.5842 7.30902 10.6004C7.30422 10.6117 7.26859 10.6117 7.26859 10.6117V10.6117ZM7.38027 10.1121C7.38027 10.1121 7.35595 10.1638 7.32853 10.1638C7.30101 10.1606 7.30101 10.1525 7.30101 10.1444C7.30101 10.1331 7.32853 10.104 7.32523 10.0959C7.31723 10.0959 7.29771 10.0959 7.30101 10.0765C7.30101 10.0603 7.32853 10.0409 7.35275 10.0445C7.37104 10.0294 7.39382 10.0209 7.41749 10.0203C7.44501 10.0203 7.46923 10.0283 7.46923 10.0445C7.46923 10.0607 7.43723 10.0962 7.42549 10.1044C7.41259 10.1173 7.39637 10.1258 7.38027 10.1124V10.1121ZM7.01131 11.0684C7.01131 11.0684 6.97931 11.0717 6.97931 11.0878C6.97931 11.0959 6.98731 11.0959 6.99872 11.0911C7.0053 11.0907 7.01181 11.0896 7.01814 11.0878C7.02134 11.0911 7.02134 11.1072 7.04566 11.1072C7.06563 11.1045 7.08487 11.0979 7.1023 11.0878C7.12171 11.0798 7.13792 11.0716 7.13792 11.0558C7.12982 11.0283 7.1136 11.0153 7.08939 11.0153C7.07698 11.0145 7.06461 11.0173 7.05376 11.0234C7.05376 11.0234 7.04566 11.0071 7.01814 11.0234C6.99062 11.0396 6.99382 11.0396 7.00192 11.0477C7.01643 11.0606 7.01163 11.069 7.01163 11.069L7.01131 11.0684ZM6.82847 11.2367C6.82847 11.2286 6.8689 11.2124 6.88021 11.2173C6.89151 11.2205 6.92383 11.2819 6.92383 11.2884C6.92383 11.2965 6.88341 11.3159 6.86719 11.3159C6.85098 11.3159 6.82357 11.2884 6.82357 11.2839C6.82357 11.2807 6.84298 11.2759 6.84298 11.2726C6.84778 11.2646 6.82847 11.2451 6.82847 11.237V11.2367ZM6.70048 11.0004C6.70859 10.9972 6.70859 10.9891 6.7199 10.981C6.72707 10.9762 6.73605 10.9751 6.74422 10.9778C6.74999 10.9675 6.7601 10.9603 6.77174 10.9583C6.79115 10.9551 6.80736 10.9583 6.80374 10.9664C6.80374 10.9907 6.81995 11.0068 6.81995 11.0262C6.81995 11.0457 6.80864 11.07 6.76822 11.0862C6.72779 11.0975 6.67275 11.0975 6.66464 11.0943C6.65654 11.0911 6.64843 11.0587 6.65654 11.0425C6.66464 11.0262 6.68726 11.0085 6.70027 11.0004V11.0004H6.70048Z" fill="#82764F"/>
<path fill-rule="evenodd" clip-rule="evenodd" d="M6.75203 11.0112C6.75203 11.0112 6.72451 11.0274 6.72451 11.0356C6.72207 11.0434 6.72099 11.0516 6.72131 11.0598C6.72131 11.0646 6.75693 11.0566 6.76173 11.0517C6.76333 11.0485 6.75203 11.0197 6.75203 11.0112Z" fill="#6E6342"/>
<path fill-rule="evenodd" clip-rule="evenodd" d="M6.51136 10.9352C6.52747 10.9385 6.55499 10.9352 6.576 10.9433C6.59222 10.9514 6.60352 10.9676 6.58731 10.9871C6.5711 11.0065 6.55531 11.0356 6.51936 11.0307C6.47894 11.0275 6.44011 11.0065 6.44011 10.9903C6.43874 10.9695 6.44573 10.9491 6.45952 10.9336C6.47574 10.9207 6.48374 10.9288 6.51126 10.9352V10.9352H6.51136Z" fill="#585136"/>
<path fill-rule="evenodd" clip-rule="evenodd" d="M6.49195 10.9514C6.49195 10.9514 6.44022 10.9918 6.42721 11.0114C6.41099 11.0308 6.33174 11.131 6.30753 11.1521C6.31557 11.1379 6.32473 11.1243 6.33494 11.1116C6.30294 11.1321 6.27895 11.1629 6.26699 11.199C6.24758 11.2589 6.37547 11.2913 6.45953 11.3156C6.54358 11.3399 6.57611 11.3476 6.57611 11.3476C6.54517 11.3011 6.5186 11.2518 6.49675 11.2004C6.46475 11.1243 6.44822 11.1162 6.46923 11.0806C6.48545 11.045 6.50977 11.0207 6.50977 10.9932C6.50006 10.9676 6.49195 10.9514 6.49195 10.9514Z" fill="#574F35"/>
<path fill-rule="evenodd" clip-rule="evenodd" d="M4.64725 11.0794C4.65902 11.0816 4.6711 11.0816 4.68287 11.0794C4.70709 11.0761 4.95957 10.9834 5.22335 11C5.42083 11.012 5.61656 11.0441 5.80746 11.096C6.13919 11.1834 6.55178 11.3565 6.81877 11.4553C6.88991 11.4827 6.95957 11.5314 7.01077 11.5507C7.21471 11.63 7.22271 11.63 7.3425 11.651C7.4833 11.6704 7.6273 11.6235 7.77781 11.5912C7.96223 11.5507 8.27775 11.5312 8.55445 11.4908C8.64392 11.4784 8.73217 11.4584 8.81823 11.431C8.81823 11.431 8.59818 11.651 8.07061 11.7303C7.85736 11.7627 7.64066 11.7654 7.42666 11.7384C7.25834 11.7222 7.14677 11.6979 7.06261 11.6736C6.96714 11.6461 6.7713 11.5733 6.53023 11.5136C6.36191 11.4699 6.17418 11.4376 5.95903 11.3972C5.42826 11.3 4.85226 11.1884 4.64703 11.08L4.64725 11.0794Z" fill="#252211"/>
<path fill-rule="evenodd" clip-rule="evenodd" d="M4.05176 10.0793C3.92376 10.1877 3.78797 10.2913 3.65539 10.3916L3.25571 10.6987C3.11981 10.7989 2.98712 10.9025 2.85112 11.0029C2.71512 11.1032 2.57933 11.1986 2.43512 11.2909C2.56312 11.1825 2.69891 11.0821 2.8348 10.9835C2.97069 10.8848 3.1116 10.788 3.24269 10.688L3.64237 10.3805C3.77987 10.2802 3.91256 10.1766 4.05176 10.0796V10.0793ZM3.34471 11.2121C3.34471 11.2121 3.48871 11.0923 3.66834 10.9241C3.89159 10.7154 4.16508 10.4483 4.25244 10.3999L3.3446 11.2122L3.34471 11.2121Z" fill="#CFB66C"/>
<path fill-rule="evenodd" clip-rule="evenodd" d="M3.34467 11.2121C3.41592 11.1409 3.49197 11.0714 3.56803 11.0033L3.68451 10.903C3.72013 10.871 3.76067 10.8351 3.79619 10.7995C3.86733 10.7283 3.93699 10.6522 4.00813 10.5794C4.0434 10.5428 4.08068 10.5083 4.11981 10.4758C4.13938 10.4585 4.1611 10.4438 4.18445 10.4321C4.20397 10.4208 4.22499 10.4001 4.2524 10.3965C4.23629 10.4208 4.21688 10.4321 4.20067 10.4531C4.18125 10.4693 4.16504 10.4888 4.14893 10.5049C4.11331 10.5405 4.07288 10.5728 4.03725 10.6052C3.9612 10.67 3.88195 10.7332 3.80589 10.801C3.72984 10.8687 3.65869 10.9418 3.58253 11.0097C3.50008 11.0794 3.42403 11.1473 3.34467 11.2124V11.2121ZM4.31238 10.5648C4.31238 10.5648 3.78491 11.0811 3.67643 11.1651L4.31238 10.5648Z" fill="#CFB66C"/>
<path fill-rule="evenodd" clip-rule="evenodd" d="M4.31234 10.5647C4.26489 10.6196 4.21401 10.6715 4.16002 10.72L4.00002 10.8721C3.94828 10.9238 3.89964 10.9757 3.84471 11.0274C3.78807 11.076 3.73634 11.1234 3.67639 11.1682L3.8317 11.0161C3.88354 10.9644 3.94018 10.9208 3.99522 10.8689L4.15052 10.7168C4.20386 10.6635 4.2557 10.6116 4.31234 10.5647V10.5647ZM4.33653 10.8446C4.28791 10.9803 4.23061 11.1127 4.16501 11.2411C4.02911 11.513 3.82527 11.8527 3.73621 12.0259L4.33653 10.8446Z" fill="#CFB66C"/>
<path fill-rule="evenodd" clip-rule="evenodd" d="M4.33651 10.8447C4.33651 10.9046 4.3203 10.9564 4.30089 11.0081C4.28196 11.0599 4.26039 11.1107 4.23625 11.1602C4.21193 11.2088 4.18441 11.2606 4.15689 11.3076C4.12937 11.3545 4.09705 11.4029 4.07273 11.4516L3.90931 11.7396C3.85267 11.8356 3.79763 11.9321 3.73779 12.0244C3.77822 11.9208 3.83326 11.8237 3.8851 11.7282C3.94174 11.6322 3.99347 11.5362 4.0451 11.4369C4.07031 11.3875 4.09298 11.3367 4.11305 11.2849C4.13726 11.2331 4.16147 11.1846 4.18099 11.1376C4.20521 11.0859 4.22462 11.0373 4.24894 10.9904C4.27635 10.9402 4.29907 10.8917 4.3363 10.8447L4.33651 10.8447Z" fill="#CFB66C"/>
<path fill-rule="evenodd" clip-rule="evenodd" d="M4.91264 12.1716C4.91264 12.1716 4.75264 12.3836 4.76864 12.6522C4.81227 12.5115 4.86731 12.2962 4.91264 12.1716ZM5.06469 12.3841C5.06469 12.3841 5.00805 12.9601 4.96112 13.2433C5.02747 12.916 5.04037 12.9435 5.06469 12.3841ZM6.12452 13.2773C6.12452 13.2773 5.88505 13.9813 5.88015 14.177C5.93199 13.9758 6.03225 13.5648 6.12452 13.2768V13.2773Z" fill="#DEC270"/>
<path fill-rule="evenodd" clip-rule="evenodd" d="M6.68451 12.1279C6.68451 12.1279 7.07288 12.7687 7.36419 13.3156C7.28536 13.0404 7.10403 12.5356 6.68451 12.1279Z" fill="#CBAF59"/>
<path fill-rule="evenodd" clip-rule="evenodd" d="M7.72821 13.0713C7.94145 13.4482 8.13374 13.8366 8.30421 14.2347C8.27189 13.9596 8.18442 13.4888 7.72821 13.0713Z" fill="#E3C677"/>
<path fill-rule="evenodd" clip-rule="evenodd" d="M10.7962 14.0161C10.8608 13.9756 10.9887 13.7555 11.1004 13.7005C11.2119 13.6439 11.2961 13.6326 11.3965 13.5209C11.4967 13.4043 11.5245 13.3332 11.7443 13.241C12.0518 13.1082 11.8403 12.9367 11.8403 12.9367C11.8742 12.9034 11.9104 12.8726 11.9487 12.8445C12.0281 12.7847 12.1202 12.7118 12.1122 12.5839C12.1009 12.3688 12.0605 12.0565 11.8841 11.8753C12.0556 11.8396 12.384 11.8154 12.5881 11.7637C12.8242 11.7037 12.9327 11.6196 12.9327 11.6196C12.9327 11.6196 12.7968 11.3882 13.0169 11.1553C13.2369 10.9223 13.4165 10.7831 13.5492 10.5225C13.3971 10.5031 13.1652 10.4222 12.5734 10.6471C12.6054 10.6621 12.6362 10.6794 12.6657 10.6988C12.6657 10.6988 12.3017 10.7992 12.169 10.9109C11.9375 11.1066 11.9084 11.2668 11.6576 11.3866C11.4068 11.5064 11.1543 11.474 10.9457 11.571C10.7371 11.6681 10.7062 11.7507 10.6301 11.7863C10.6463 11.8057 10.6269 11.838 10.6576 11.8655C10.6382 11.8931 10.5249 12.0775 10.41 12.0775C10.4213 12.1212 10.5184 12.1535 10.5184 12.1535C10.5184 12.1535 10.4473 12.2054 10.266 12.2183C10.3582 12.3143 10.4457 12.4189 10.6867 12.571C10.6673 12.6115 10.5863 12.6714 10.6188 12.7475C10.6544 12.8235 10.7468 12.9271 11.1155 13.0113C10.9278 13.0193 10.7078 13.063 10.4115 13.0226C10.1154 12.9869 10.0669 12.9659 9.88405 13.0113C9.90347 13.0307 9.9552 13.0307 10.0005 13.0824C9.952 13.0856 9.64779 13.0468 9.54421 13.1828C9.43584 13.3235 9.38891 13.5549 9.39701 13.7102C9.34037 13.7378 9.28533 13.7863 9.31285 13.8867C9.34037 13.987 9.48437 14.0194 9.57664 14.0824C9.6688 14.1503 9.67691 14.1746 9.76437 14.1585C9.85653 14.139 9.99243 14.0469 10.0718 14.0469C10.1511 14.0469 10.2077 14.1067 10.2077 14.1067C10.2077 14.1067 10.4229 14.0031 10.4439 14.0226C10.4634 14.042 10.4471 14.1666 10.4682 14.186C10.4895 14.2006 10.7319 14.0566 10.7967 14.0161H10.7962Z" fill="#ECD592"/>
<path fill-rule="evenodd" clip-rule="evenodd" d="M15.5001 7.54054C14.4887 4.92891 11.9887 4.44507 11.9887 4.44507H4.856L4.88352 7.10523H6.304V13.0454H4.8559V15.7007H11.7913C13.4627 15.7007 14.8026 14.0211 14.8026 14.0211C16.9482 10.9758 15.4999 7.54054 15.4999 7.54054H15.5001ZM11.8284 12.2314C11.8284 12.2314 11.2844 13.0163 10.6925 13.0163H9.50852L9.48047 7.11174H10.9999C10.9999 7.11174 11.7039 7.25894 12.1958 8.65211C12.1958 8.65211 12.8478 10.6468 11.8284 12.2314V12.2314Z" fill="white" fill-opacity="0.8"/>
</svg>
