<svg width="20" height="20" viewBox="0 0 20 20" fill="none" xmlns="http://www.w3.org/2000/svg">
<circle cx="10" cy="10" r="10" fill="#EDF0F4"/>
<path fill-rule="evenodd" clip-rule="evenodd" d="M6.33335 9.37777L10.0224 7.43573L13.6813 9.38981L10.0063 4L6.33335 9.37777ZM6.47404 9.9386L10.0264 8.04304L13.5325 9.92474L10.0284 11.8224L6.47404 9.9386ZM6.33331 10.4815C7.62799 11.169 8.97896 11.8887 10.0224 12.4456L13.6813 10.4815C12.3564 12.4496 11.2526 14.0881 10.0224 15.9015L9.31115 14.8574C8.28408 13.3497 7.22151 11.79 6.33331 10.4815Z" fill="#3AB83A"/>
<path fill-rule="evenodd" clip-rule="evenodd" d="M10.0062 4L10.0223 7.43587L13.6812 9.38981L10.0062 4ZM10.0263 8.04304L13.5324 9.92474L10.0283 11.8224L10.0263 8.04304ZM10.0223 12.4456L13.6812 10.4815C12.3563 12.4496 10.0223 15.9015 10.0223 15.9015V12.4456Z" fill="#0B8311"/>
<path d="M6.474 9.93868L10.0265 10.2302L13.5327 9.92664L10.0284 11.8244L6.474 9.93868Z" fill="#0B8311"/>
<path d="M10.0264 10.2302L13.5325 9.92664L10.0284 11.8244L10.0264 10.2302Z" fill="#146714"/>
</svg>
