<svg width="20" height="20" viewBox="0 0 20 20" fill="none" xmlns="http://www.w3.org/2000/svg">
<circle cx="10.0834" cy="9.91667" r="8.91667" fill="white"/>
<path fill-rule="evenodd" clip-rule="evenodd" d="M0 10C0 4.47715 4.47713 0 9.99996 0H10.0581C12.7025 0.00769483 15.2356 1.06559 17.1001 2.94096C18.9645 4.81632 20.0076 7.35554 19.9999 10C19.9999 15.5228 15.5228 20 9.99996 20C4.47713 20 0 15.5228 0 10ZM9.12829 13.8499L10.1694 10.339L11.7917 9.87893L12.1307 8.71671L10.5326 9.20097L12.2275 3.43826V3.34625C12.225 3.27174 12.193 3.20129 12.1385 3.15043C12.084 3.09956 12.0115 3.07245 11.937 3.07506H9.78204C9.61417 3.06989 9.46437 3.17974 9.41884 3.3414L7.40917 10.1695L5.81111 10.6538L5.44792 11.7676L7.04597 11.2833L5.61741 16.1501H14.1404C14.3088 16.1571 14.4596 16.0465 14.5036 15.8838L14.9878 14.2131V14.1211C14.9853 14.0466 14.9533 13.9761 14.8988 13.9252C14.8443 13.8744 14.7718 13.8473 14.6973 13.8499H9.12829Z" fill="#345D9D"/>
</svg>
