<svg width="20" height="20" viewBox="0 0 20 20" fill="none" xmlns="http://www.w3.org/2000/svg">
<path fill-rule="evenodd" clip-rule="evenodd" d="M10 20C4.5 20 0 15.5001 0 9.95021C0.05 4.45032 4.5 -0.0495863 10.05 0.00041267C15.55 0.0504116 20 4.50032 20 10.1002C19.95 15.5501 15.5 20 10 20" fill="#E42D04"/>
<path fill-rule="evenodd" clip-rule="evenodd" d="M10.1947 17.3332C10.9205 17.3332 12.7824 17.006 14.4234 15.6971C16.3104 14.1921 16.4882 13.3527 16.6028 12.8115C16.6128 12.7644 16.6223 12.7196 16.6324 12.6767C16.6516 12.5956 16.6627 12.4855 16.6666 12.3546C16.2702 12.2904 15.7147 12.2537 15.0664 12.3306C14.006 12.4565 13.1729 13.1801 12.8889 13.5262C12.7311 12.7396 11.9611 11.1665 10.1434 11.1665C8.32571 11.1665 7.34532 12.7396 7.08234 13.5262C6.91404 13.2325 6.2871 12.5823 5.12578 12.3306C4.40774 12.175 3.78139 12.2519 3.33325 12.3828C3.36863 12.9677 3.56088 13.5916 4.07257 14.2498C4.95302 15.3825 6.31914 16.0819 6.92864 16.3939C6.99636 16.4286 7.05474 16.4585 7.10208 16.4837C7.57544 16.7354 8.8693 17.3332 10.1947 17.3332Z" fill="white"/>
<path fill-rule="evenodd" clip-rule="evenodd" d="M16.6651 12.3317C16.269 12.2677 15.7138 12.231 15.0659 12.3078C14.0061 12.4333 13.1735 13.1548 12.8897 13.4999C12.732 12.7156 11.9624 11.147 10.1458 11.147C8.3291 11.147 7.34929 12.7156 7.08646 13.4999C6.91825 13.2071 6.29168 12.5587 5.13104 12.3078C4.41341 12.1526 3.78743 12.2293 3.33955 12.3599C3.30731 11.828 3.40543 11.3285 3.51073 10.8646C3.68735 10.0866 4.131 9.05548 4.33075 8.63717C4.15202 8.20842 3.73781 6.99325 3.51073 5.56266C3.28365 4.13208 3.66843 3.16789 3.8892 2.86462C4.24664 2.95874 5.1003 3.25364 5.65539 3.68031C6.21048 4.10698 7.06413 5.05024 7.42158 5.46855C7.88415 5.34306 9.07423 5.09208 10.134 5.09208C11.1937 5.09208 12.2155 5.34306 12.594 5.46855C12.9094 5.09208 13.6853 4.20737 14.2656 3.68031C14.8459 3.15325 15.7899 2.896 16.1895 2.83325C16.2946 2.9692 16.5175 3.36659 16.5679 3.86855C16.631 4.496 16.4418 5.81364 16.1895 6.69208C15.9876 7.39482 15.7268 8.21887 15.6218 8.54306C15.6743 8.65809 15.8551 9.03247 16.1579 9.60972C16.479 10.2219 16.6865 11.6016 16.6651 12.3317Z" fill="#FFAA35"/>
<path d="M11.4895 15.1235C11.4145 15.2239 11.3333 15.4162 11.302 15.4998V15.4685L11.2083 14.7158C11.0312 14.7367 10.5708 14.7785 10.1458 14.7785C9.72075 14.7785 9.21867 14.7367 9.02075 14.7158L8.9895 15.4685C8.96867 15.4371 8.9145 15.3493 8.8645 15.2489C8.802 15.1235 8.58325 14.9353 8.58325 14.8413C8.58325 14.766 8.47908 14.6008 8.427 14.5276L8.33325 14.4022H8.89575L9.02075 14.4963C9.12492 14.4858 9.3895 14.4775 9.6145 14.5276C9.8395 14.5778 9.97906 14.3813 10.0208 14.2768V13.775C9.927 13.7123 9.69575 13.568 9.52075 13.4927C9.302 13.3986 9.08325 13.0223 9.14575 12.646C9.20825 12.2696 9.39575 12.1442 9.52075 12.1756C9.64575 12.2069 10.4583 12.1442 10.5833 12.1756C10.7083 12.2069 10.927 12.2696 11.0208 12.4264C11.1145 12.5833 11.052 13.2105 10.8645 13.43C10.7145 13.6056 10.427 13.7331 10.302 13.775V14.2768C10.302 14.3395 10.5208 14.4963 10.552 14.5276C10.5833 14.559 11.052 14.5276 11.1458 14.5276C11.2208 14.5276 11.2812 14.4649 11.302 14.4336H11.8333V14.559C11.8333 14.6217 11.7395 14.904 11.7083 14.9353C11.677 14.9667 11.5833 14.9981 11.4895 15.1235Z" fill="black"/>
<path d="M10.4841 14.9166L10.1666 15.1666L9.91264 14.9166L9.69042 15.0277L9.49994 14.8333H10.8333L10.6428 15.0555L10.4841 14.9166Z" fill="black"/>
<path d="M7.0675 9.78846C6.69558 9.63462 6.29266 9.53205 6.13769 9.5C6.09636 9.52135 6.01371 9.58974 6.01371 9.69231C6.01371 9.82051 5.98272 9.94872 6.01371 10.2051C6.04471 10.4615 6.29266 10.6218 6.72657 10.8141C7.16048 11.0064 7.90433 11.1667 8.43122 11.1667C8.95811 11.1667 8.46222 10.6218 8.27625 10.4936C8.09029 10.3654 7.5324 9.98077 7.0675 9.78846Z" fill="black"/>
<path d="M7.57651 8.93779C7.29857 8.98749 6.91324 8.99992 6.75532 8.99992C6.59739 8.97923 6.2626 8.88187 6.1868 8.6582C6.09204 8.37862 6.34472 8.06797 6.66056 7.91264C6.97641 7.75732 7.38701 7.81945 7.63968 8.19223C7.89236 8.56501 7.92394 8.87566 7.57651 8.93779Z" fill="white"/>
<path d="M13.2657 9.62171C13.6377 9.46787 14.0406 9.3653 14.1955 9.33325C14.2369 9.3546 14.3195 9.423 14.3195 9.52556C14.3195 9.65376 14.3505 9.78197 14.3195 10.0384C14.2885 10.2948 14.0406 10.455 13.6067 10.6474C13.1728 10.8397 12.4289 10.9999 11.902 10.9999C11.3751 10.9999 11.871 10.455 12.057 10.3268C12.2429 10.1986 12.8008 9.81402 13.2657 9.62171Z" fill="black"/>
<path d="M12.2567 8.93779C12.5347 8.98749 12.92 8.99992 13.0779 8.99992C13.2358 8.9792 13.5706 8.88187 13.6464 8.6582C13.7412 8.37862 13.4885 8.06797 13.1727 7.91264C12.8568 7.75732 12.4462 7.81945 12.1935 8.19223C11.9409 8.56501 11.9093 8.87566 12.2567 8.93779Z" fill="white"/>
<path d="M5.40482 6.61224C5.17769 6.8603 4.74238 7.41844 4.55311 7.6665C4.42693 7.39777 4.14933 6.68046 4.04839 5.96108C3.94745 5.2417 4.02736 4.13162 4.07994 3.6665C4.21663 3.67684 4.6162 3.79053 5.12091 4.16263C5.62563 4.53472 6.36168 5.22723 6.66661 5.52697C6.34064 5.78537 5.63194 6.36418 5.40482 6.61224Z" fill="#FF8C30"/>
<path fill-rule="evenodd" clip-rule="evenodd" d="M3.99994 4.25716C4.49602 4.46417 5.14901 4.78062 5.42266 5.06663C5.70026 5.35676 5.94447 5.74082 6.08945 5.99984C6.30711 5.81937 6.52339 5.646 6.66661 5.53333C6.35828 5.23257 5.61404 4.53769 5.1037 4.16433C4.59337 3.79096 4.18936 3.67688 4.05114 3.6665C4.03464 3.81138 4.01547 4.01863 3.99994 4.25716Z" fill="#FF9A32"/>
<path d="M14.4284 6.61224C14.6555 6.8603 15.0909 7.41844 15.2801 7.6665C15.4063 7.39777 15.6839 6.68046 15.7848 5.96108C15.8858 5.2417 15.8059 4.13162 15.7533 3.6665C15.6166 3.67684 15.217 3.79053 14.7123 4.16263C14.2076 4.53472 13.4715 5.22723 13.1666 5.52697C13.4926 5.78537 14.2013 6.36418 14.4284 6.61224Z" fill="#FF8C30"/>
<path fill-rule="evenodd" clip-rule="evenodd" d="M15.8333 4.25716C15.3372 4.46417 14.6842 4.78062 14.4106 5.06663C14.1329 5.35676 13.8887 5.74082 13.7438 5.99984C13.5262 5.81937 13.3098 5.646 13.1666 5.53333C13.4749 5.23257 14.2192 4.53769 14.7295 4.16433C15.2398 3.79096 15.6438 3.67688 15.7821 3.6665C15.7986 3.81138 15.8177 4.01863 15.8333 4.25716Z" fill="#FF9A32"/>
</svg>
