<svg width="20" height="20" viewBox="0 0 20 20" fill="none" xmlns="http://www.w3.org/2000/svg">
<circle cx="10" cy="10" r="10" fill="black"/>
<path d="M6.19909 12.3691C6.26839 12.2998 6.36367 12.2594 6.46473 12.2594H15.6293C15.7968 12.2594 15.8805 12.4615 15.7621 12.5799L13.9517 14.3903C13.8824 14.4596 13.7872 14.5 13.6861 14.5H4.52151C4.35405 14.5 4.27031 14.2979 4.38869 14.1795L6.19909 12.3691Z" fill="url(#paint0_linear_42_1832)"/>
<path d="M6.19915 5.60972C6.27133 5.54042 6.36662 5.5 6.46479 5.5H15.6294C15.7968 5.5 15.8806 5.70212 15.7622 5.8205L13.9518 7.6309C13.8825 7.70019 13.7872 7.74062 13.6862 7.74062H4.52158C4.35411 7.74062 4.27037 7.5385 4.38876 7.42012L6.19915 5.60972Z" fill="url(#paint1_linear_42_1832)"/>
<path d="M13.9517 8.96775C13.8824 8.89846 13.7872 8.85803 13.6861 8.85803H4.52151C4.35405 8.85803 4.27031 9.06015 4.38869 9.17853L6.19909 10.9889C6.26839 11.0582 6.36367 11.0986 6.46473 11.0986H15.6293C15.7968 11.0986 15.8805 10.8965 15.7621 10.7781L13.9517 8.96775Z" fill="url(#paint2_linear_42_1832)"/>
<defs>
<linearGradient id="paint0_linear_42_1832" x1="-16.3803" y1="3.7998" x2="-16.6241" y2="16.0697" gradientUnits="userSpaceOnUse">
<stop stop-color="#00FFA3"/>
<stop offset="1" stop-color="#DC1FFF"/>
</linearGradient>
<linearGradient id="paint1_linear_42_1832" x1="-19.1536" y1="2.35187" x2="-19.3974" y2="14.6217" gradientUnits="userSpaceOnUse">
<stop stop-color="#00FFA3"/>
<stop offset="1" stop-color="#DC1FFF"/>
</linearGradient>
<linearGradient id="paint2_linear_42_1832" x1="-17.7758" y1="3.07122" x2="-18.0196" y2="15.3411" gradientUnits="userSpaceOnUse">
<stop stop-color="#00FFA3"/>
<stop offset="1" stop-color="#DC1FFF"/>
</linearGradient>
</defs>
</svg>
