<svg width="20" height="20" viewBox="0 0 20 20" fill="none" xmlns="http://www.w3.org/2000/svg">
<path fill-rule="evenodd" clip-rule="evenodd" d="M10 20C4.5 20 0 15.5001 0 9.95021C0.05 4.45032 4.5 -0.0495863 10.05 0.00041267C15.55 0.0504116 20 4.50032 20 10.1002C19.95 15.5501 15.5 20 10 20" fill="#FC070C"/>
<path fill-rule="evenodd" clip-rule="evenodd" d="M16.206 7.00513L16.2059 7.00508C15.7428 6.55541 15.2534 6.08027 14.8215 5.69693L14.7778 5.6663C14.705 5.60785 14.6229 5.56201 14.535 5.53068L14.2016 5.46849C11.9016 5.03934 4.44648 3.64828 4.29312 3.66693C4.24777 3.67329 4.20441 3.68973 4.16625 3.71506L4.12469 3.74787C4.07351 3.79985 4.03464 3.86264 4.01094 3.93162L4 3.96006V4.11537V4.13943C4.50614 5.54881 5.82096 8.69629 7.03498 11.6025L7.03499 11.6025C8.06137 14.0595 9.01571 16.3441 9.34842 17.26L9.34854 17.2604C9.39232 17.3961 9.47544 17.6538 9.63061 17.6669H9.66561C9.74873 17.6669 10.1031 17.1988 10.1031 17.1988C10.1031 17.1988 16.4381 9.51629 17.079 8.69817C17.162 8.59739 17.2352 8.48899 17.2978 8.37442C17.3302 8.19207 17.2646 8.00606 17.125 7.88442C16.8521 7.63245 16.5357 7.32525 16.206 7.00513ZM11.7284 8.77912L14.4322 6.53694L16.0181 7.99818L11.7284 8.77912ZM6.02343 4.81757L10.6784 8.63255L13.555 6.20662L6.02343 4.81757ZM11.0984 9.63224L15.8628 8.86443L10.4159 15.4269L11.0984 9.63224ZM10.289 9.35443L5.39125 5.19819L9.5803 15.4313L10.289 9.35443Z" fill="white"/>
</svg>
