<svg width="20" height="20" viewBox="0 0 20 20" fill="none" xmlns="http://www.w3.org/2000/svg">
<path d="M19.6986 12.419C18.363 17.7762 12.937 21.0365 7.57919 19.7006C2.22361 18.365 -1.03667 12.9387 0.299485 7.58197C1.63447 2.22419 7.06044 -1.03634 12.4166 0.299234C17.7741 1.63481 21.0341 7.0617 19.6984 12.4191L19.6985 12.419H19.6986Z" fill="#50AF95"/>
<path fill-rule="evenodd" clip-rule="evenodd" d="M11.2653 11.1338V11.1338C11.1946 11.1391 10.8293 11.1609 10.0144 11.1609C9.3662 11.1609 8.906 11.1414 8.74455 11.1338V11.1338C6.23968 11.0236 4.37002 10.5875 4.37002 10.0655C4.37002 9.5434 6.23968 9.10795 8.74455 8.99599V10.6995C8.90836 10.7113 9.37739 10.739 10.0256 10.739C10.8034 10.739 11.1928 10.7066 11.263 10.7001V8.99717C13.7625 9.10853 15.6281 9.54457 15.6281 10.0655C15.6281 10.5864 13.7631 11.0224 11.263 11.1332V11.1332L11.2653 11.1338ZM11.2654 8.82098V7.29661H14.7537V4.97205H5.25628V7.29661H8.744V8.82039C5.90916 8.95061 3.77728 9.51216 3.77728 10.1851C3.77728 10.858 5.90916 11.4189 8.744 11.5498V16.4346H11.2648V11.548C14.0931 11.4178 16.2215 10.8568 16.2215 10.1845C16.2215 9.51216 14.0949 8.9512 11.2648 8.82039V8.82039L11.2654 8.82098Z" fill="white"/>
</svg>
