<svg width="20" height="20" viewBox="0 0 20 20" fill="none" xmlns="http://www.w3.org/2000/svg">
<path d="M9.99995 19.3314C15.1535 19.3314 19.3312 15.1537 19.3312 10.0002C19.3312 4.84669 15.1535 0.668945 9.99995 0.668945C4.84644 0.668945 0.668701 4.84669 0.668701 10.0002C0.668701 15.1537 4.84644 19.3314 9.99995 19.3314Z" fill="black"/>
<path d="M7.56434 5.22386C8.44521 4.77469 9.43313 4.57784 10.4189 4.65505C11.4047 4.73226 12.3499 5.08052 13.1501 5.66136L13.0198 5.72786L12.1463 6.17286C11.4785 5.79989 10.7249 5.60786 9.96005 5.61579C9.1952 5.62372 8.4457 5.83134 7.78579 6.21808C7.12587 6.60483 6.57845 7.15727 6.19775 7.82069C5.81705 8.4841 5.61628 9.23547 5.61534 10.0004C5.61553 10.1921 5.62814 10.3835 5.65309 10.5736L13.0221 6.81961L14.5471 6.04211L16.3358 5.12936V6.22536L14.5326 7.14386L13.6598 7.58861L5.89109 11.5469L5.45834 11.7674L5.01909 11.9924L3.66309 12.6836V11.5871L4.12359 11.3524C4.29511 11.2651 4.43697 11.129 4.53128 10.9612C4.6256 10.7934 4.66815 10.6015 4.65359 10.4096C4.64309 10.2741 4.63784 10.1381 4.63784 10.0016C4.63778 9.01285 4.91107 8.04332 5.42753 7.20016C5.94399 6.357 6.6835 5.67304 7.56434 5.22386V5.22386Z" fill="white"/>
<path d="M16.3371 7.32031V8.41206L15.8751 8.64706C15.7037 8.73444 15.562 8.87055 15.4679 9.03826C15.3737 9.20596 15.3312 9.39778 15.3458 9.58956C15.3561 9.72581 15.3616 9.86456 15.3616 10.0016C15.3611 10.99 15.0874 11.9591 14.5708 12.8017C14.0542 13.6444 13.3147 14.3279 12.434 14.7767C11.5534 15.2255 10.5658 15.4221 9.58037 15.3449C8.59496 15.2677 7.65007 14.9196 6.85006 14.3391L7.79706 13.8563L7.85056 13.8281C8.51843 14.2025 9.27262 14.3957 10.0382 14.3886C10.8039 14.3814 11.5543 14.1742 12.2151 13.7874C12.8759 13.4006 13.424 12.8477 13.805 12.1836C14.1861 11.5194 14.3868 10.7672 14.3873 10.0016C14.3874 9.80888 14.3749 9.61639 14.3501 9.42531L6.97306 13.1833L5.44806 13.9611L3.66406 14.8698V13.7753L5.46031 12.8601L6.33331 12.4146L16.3371 7.32031Z" fill="white"/>
</svg>
