<svg width="20" height="20" viewBox="0 0 20 20" fill="none" xmlns="http://www.w3.org/2000/svg">
<path d="M19.6986 12.419C18.363 17.7762 12.937 21.0365 7.57919 19.7006C2.22361 18.365 -1.03667 12.9387 0.299485 7.58197C1.63447 2.22419 7.06044 -1.03634 12.4166 0.299234C17.7741 1.63481 21.0341 7.0617 19.6984 12.4191L19.6985 12.419H19.6986Z" fill="#23292F"/>
<path d="M14.917 4.16675H16.935L12.7354 8.32488C11.2146 9.82992 8.7488 9.82992 7.22686 8.32488L3.02563 4.16675H5.04525L8.23585 7.32544C9.20314 8.27878 10.7567 8.27878 11.724 7.32544L14.917 4.16675Z" fill="white"/>
<path d="M5.01935 15.7291H3L7.22686 11.5453C8.74771 10.0402 11.2135 10.0402 12.7354 11.5453L16.9623 15.7291H14.9443L11.7264 12.5447C10.7591 11.5914 9.20559 11.5914 8.2383 12.5447L5.01935 15.7291Z" fill="white"/>
</svg>
