<svg width="40" height="40" viewBox="0 0 40 40" fill="none" xmlns="http://www.w3.org/2000/svg">
<g clip-path="url(#clip0_57_110)">
<path d="M39.4013 24.8386C36.7299 35.553 25.8767 42.0735 15.1598 39.4017C4.44748 36.7306 -2.07382 25.8779 0.598794 15.1644C3.26906 4.44887 14.1222 -2.07219 24.8358 0.598957C35.5519 3.2701 42.0728 14.1239 39.401 24.8388L39.4012 24.8386H39.4013Z" fill="#F7931A"/>
<path d="M28.82 17.1506C29.2181 14.489 27.1916 13.0583 24.4204 12.1039L25.3194 8.49857L23.1245 7.95171L22.2493 11.4621C21.6723 11.3182 21.0797 11.1826 20.4908 11.0482L21.3723 7.51463L19.1787 6.96777L18.2792 10.5719C17.8017 10.4632 17.3327 10.3558 16.8777 10.2426L16.8803 10.2312L13.8534 9.47547L13.2695 11.8195C13.2695 11.8195 14.898 12.1928 14.8637 12.2157C15.7525 12.4375 15.9132 13.0258 15.8865 13.4922L14.8625 17.5995C14.9237 17.615 15.0031 17.6375 15.0907 17.6727C15.0175 17.6545 14.9395 17.6347 14.8587 17.6153L13.4233 23.3691C13.3147 23.6391 13.039 24.0443 12.4176 23.8904C12.4396 23.9223 10.8223 23.4923 10.8223 23.4923L9.73254 26.0045L12.5889 26.7165C13.1202 26.8497 13.641 26.9891 14.1538 27.1202L13.2455 30.7669L15.4379 31.3138L16.3373 27.7058C16.9363 27.8684 17.5175 28.0183 18.0865 28.1597L17.1901 31.7506L19.3851 32.2975L20.2933 28.6577C24.0361 29.3659 26.8504 29.0804 28.0349 25.6954C28.9895 22.9701 27.9874 21.3982 26.0183 20.3731C27.4525 20.0423 28.5328 19.0992 28.8208 17.1509L28.8201 17.1504L28.82 17.1506ZM23.8051 24.1819C23.1268 26.9072 18.5377 25.434 17.0499 25.0646L18.2552 20.2334C19.7429 20.6047 24.5141 21.3397 23.8052 24.1819H23.8051ZM24.484 17.1111C23.8652 19.59 20.0456 18.3306 18.8066 18.0218L19.8994 13.6402C21.1384 13.949 25.1285 14.5254 24.4841 17.1111H24.484Z" fill="white"/>
</g>
<defs>
<clipPath id="clip0_57_110">
<rect width="40" height="40" fill="white"/>
</clipPath>
</defs>
</svg>
