<svg width="42" height="42" viewBox="0 0 42 42" fill="none" xmlns="http://www.w3.org/2000/svg">
<circle cx="21" cy="21" r="21" fill="white"/>
<path fill-rule="evenodd" clip-rule="evenodd" d="M21.0017 31.5194C21.0017 30.0583 20.0294 29.0859 18.5682 29.0859L17.8006 29.093C17.8006 29.093 15.6247 29.4547 15.6247 26.5518L15.7058 14.7971H18.81C19.3782 14.2271 19.3782 13.3024 18.81 12.7324L14.2711 8.1918C13.6994 7.62356 12.7747 7.62356 12.2064 8.1918L7.39761 12.7324C6.82938 13.3024 6.82938 14.2271 7.39761 14.7971H10.6535C10.5706 15.0812 10.5229 26.1847 10.5229 26.1847C10.5229 32.7336 14.8094 34.1665 16.5353 34.1665H18.3547C19.8158 34.1665 21.0017 32.9806 21.0017 31.5194Z" fill="#434343"/>
<path fill-rule="evenodd" clip-rule="evenodd" d="M21.0741 10.412C21.0741 11.8732 22.1047 13.059 23.5659 13.059L25.2547 13.0555C25.8847 13.1349 26.2959 14.1937 26.2959 15.7467V27.2861L23.5447 27.2896C22.9765 27.8579 22.9765 28.7826 23.5447 29.3543L28.0835 33.8932C28.6553 34.4614 29.58 34.4614 30.1482 33.8932L34.687 29.3543C35.2588 28.7826 35.2588 27.8579 34.687 27.2896L31.4206 27.2861V15.7467C31.4206 9.19787 27.1112 7.76493 25.3835 7.76493H23.5641C22.1047 7.76493 21.0741 8.95081 21.0741 10.412Z" fill="#434343"/>
</svg>
