<svg width="61" height="61" viewBox="0 0 61 61" fill="none" xmlns="http://www.w3.org/2000/svg">
<path opacity="0.2" d="M30.5 61C47.3447 61 61 47.3447 61 30.5C61 13.6553 47.3447 0 30.5 0C13.6553 0 0 13.6553 0 30.5C0 47.3447 13.6553 61 30.5 61Z" fill="#DE9E4F"/>
<path fill-rule="evenodd" clip-rule="evenodd" d="M9.38452 30.5001C9.38452 18.8571 18.8569 9.38477 30.4999 9.38477C42.1427 9.38477 51.6153 18.8571 51.6153 30.5001C51.6153 42.1432 42.1429 51.6155 30.4999 51.6155C18.8569 51.6155 9.38452 42.1432 9.38452 30.5001ZM12.6954 30.5004C12.6954 40.3175 20.6825 48.3046 30.4999 48.3046C40.3186 48.3046 48.3044 40.3175 48.3044 30.5002C48.3044 20.6828 40.3171 12.6957 30.4999 12.6957C20.6827 12.6957 12.6954 20.6832 12.6954 30.5004Z" fill="#DE9E4F"/>
<path fill-rule="evenodd" clip-rule="evenodd" d="M30.5 21.0217C25.2735 21.0217 21.0215 25.2737 21.0215 30.5004C21.0215 33.3299 22.2686 35.8709 24.2403 37.6089C25.2248 37.0985 26.2706 36.716 27.3521 36.471C25.2108 35.3371 23.7481 33.087 23.7481 30.5006C23.7481 26.7775 26.7771 23.7487 30.5 23.7487C34.2228 23.7487 37.2518 26.7773 37.2518 30.5002C37.2518 33.0868 35.7894 35.3369 33.6479 36.4706C34.7294 36.7156 35.7751 37.0981 36.7596 37.6085C38.7312 35.8709 39.9787 33.3296 39.9787 30.5002C39.9787 25.2735 35.7264 21.0215 30.5 21.0215" fill="#DE9E4F"/>
<path fill-rule="evenodd" clip-rule="evenodd" d="M30.4999 14.9844C21.9441 14.9844 14.9836 21.9444 14.9836 30.5004C14.9836 34.9289 16.8515 38.9269 19.8372 41.7564C20.336 40.8596 20.9943 40.0361 21.786 39.3123C19.512 37.063 18.0999 33.9439 18.0999 30.5002C18.0999 23.6628 23.6625 18.1002 30.4999 18.1002C37.3372 18.1002 42.8997 23.6628 42.8997 30.5002C42.8997 33.9437 41.4875 37.0628 39.2131 39.3123C40.005 40.0361 40.6635 40.8596 41.1625 41.7564C44.148 38.9269 46.0159 34.9289 46.0159 30.5004C46.0157 21.9444 39.0552 14.9844 30.4999 14.9844" fill="#DE9E4F"/>
</svg>
