<svg id="Layer_1" data-name="Layer 1" xmlns="http://www.w3.org/2000/svg" viewBox="0 0 300 300"><path d="M145.83,14.57c3.28,0,6.58-.18,9.85,0,6,.41,8.91,3.32,9.2,9.4.23,4.91.22,9.85,0,14.77-.28,6-2.41,8.58-8.38,9.6a51.46,51.46,0,0,1-11.63.62c-11.53-.64-19.85,5.89-20.34,19.43-.09,2.46-.08,4.93-.26,7.39-.31,4.16-2.52,6.93-6.6,7.86a49.55,49.55,0,0,1-7.89,1c-3.07.19-6.16,0-9.23.15-7.88.48-13.58,5-15.47,12.68a56.25,56.25,0,0,0-.38,23.22c1,5.7,4.62,9.11,10.34,9.88,3.64.49,7.35.47,11,.6,10.74.37,15.78,5.26,16.11,15.94a121,121,0,0,1-.15,12.92c-.58,7.84-5.57,12.77-13.43,13.41-3.47.28-7,.07-10.45.35-9.26.73-13.41,4.69-14,13.88A46.76,46.76,0,0,0,84.85,200c2,9.79,8.18,14.78,18.14,15.15,3.48.13,7,0,10.46.13,7.68.37,10.56,3.4,11,11.08a63.54,63.54,0,0,0,1.07,11c1.94,8.36,7.55,12.91,16.15,13.49,3.27.22,6.57,0,9.85.16a28.78,28.78,0,0,1,6.08.71c4.89,1.26,7,3.66,7.26,8.64.25,5.32.27,10.68,0,16s-2.93,8.52-8.37,8.86a177.6,177.6,0,0,1-21.52,0c-5.2-.32-7.58-3.13-8.12-8.42-.32-3.05-.12-6.15-.25-9.23-.43-10.47-7-17.16-17.52-17.61-4.51-.19-9,.05-13.55-.16-5.74-.27-8.19-2.41-9.06-8.08a72.22,72.22,0,0,1-.45-9.2c-.29-11.53-6.92-18.12-18.56-18.36-2.67-.05-5.35.08-8-.1-7.61-.5-11.14-4-11.59-11.61-.2-3.27,0-6.57-.2-9.84C47,181.33,41.49,175.66,30.3,175c-5.33-.31-10.68,0-16-.24-7.73-.31-10.67-3.3-10.8-11.09-.13-7.6-.15-15.19,0-22.78.15-7.38,3.14-10.37,10.56-10.72,4.51-.21,9,0,13.54-.17,12.11-.4,18.93-6.84,19.93-19,.35-4.28.11-8.62.26-12.92.29-8.5,3.68-11.93,12-12.22,2.87-.1,5.75,0,8.62-.14C79.38,85,85.68,78.42,86,67.5a70.61,70.61,0,0,1,.69-10.4c.9-5,2.93-6.6,8-6.87,4.09-.22,8.21,0,12.31-.14,13.12-.31,19.45-6.78,19.63-20a62.38,62.38,0,0,1,.25-7.37c.7-5.17,3.29-7.54,8.48-8.12q.62-.06,1.23-.06h9.24Z"/><path d="M193,246.07c-3.69,0-7.4.26-11.06-.06-5.89-.53-8.89-3.29-10-9.07a68.33,68.33,0,0,1-.92-9.16c-.41-7.09-3.63-11.56-10.55-13.32A69.45,69.45,0,0,0,148.88,213c-3.06-.25-6.17,0-9.21-.31-4.76-.56-7.7-3.26-7.95-7.94a196.17,196.17,0,0,1,0-20.29c.24-5,3.16-8,8.25-8.35a131.66,131.66,0,0,1,19.05,0c6,.47,9.24,4.47,9.79,10.73.34,3.87.5,7.77,1,11.62.89,6.41,4.66,10.91,11,11.6a104.34,104.34,0,0,0,21.35,0c5.89-.58,9.56-4.86,10.31-10.71a60.4,60.4,0,0,0,.29-14.65c-1.12-9.46-7.21-15-16.74-15.84-3.47-.32-7-.11-10.45-.3-7.17-.4-10.34-3.56-10.84-10.74-.16-2.25.07-4.53-.13-6.77a54,54,0,0,0-1.3-9.09c-2.21-8-8.33-12.64-16.69-12.87-4.92-.13-9.87.15-14.75-.32-8.81-.84-11.44-3.88-11.53-12.66-.07-6.35-.12-12.72,0-19.07.16-6.93,2.81-9.66,9.68-10.08,3.68-.22,7.39,0,11.07-.22a47.71,47.71,0,0,0,9.71-1.33c4.88-1.36,8.29-4.57,9.08-9.8.55-3.63.74-7.32,1-11,.48-7.87,4-11.61,11.89-11.95,6.14-.26,12.32-.25,18.46,0,8.37.32,11.68,3.56,12.72,12,.28,2.23.2,4.5.37,6.75.52,6.78,3.79,11.09,10.29,13a40.09,40.09,0,0,0,8.47,1.33c3.26.24,6.56,0,9.84.13,7.79.27,10.76,3.09,11,10.89.2,5.53.21,11.09-.13,16.6-.41,6.43-3.36,9.23-9.78,9.49-5.53.23-11.09.26-16.61,0-6.7-.32-10.44-4.2-10.95-11-.25-3.27-.05-6.58-.41-9.83-.87-8-4.83-12.57-12.73-13.45a85.67,85.67,0,0,0-18.94,0c-6.92.76-10.72,4.82-11.53,11.66a61.87,61.87,0,0,0,0,14.71c1.07,8.61,7.37,14.17,16.24,15,3.67.33,7.39.07,11.07.32,6.56.43,9.67,3.4,10.39,9.9.29,2.64-.07,5.37.35,8,.64,4,1.2,8.15,2.68,11.89a14.88,14.88,0,0,0,12.56,9.64c3.85.49,7.75.6,11.64.81,3.07.16,6.17,0,9.21.39,4.82.64,7.64,3.25,7.82,8q.49,12.6,0,25.22c-.18,4.77-2.64,6.94-7.36,7.58a54.63,54.63,0,0,1-6.14.27c-3.28.1-6.58,0-9.84.28-12.07,1.15-16.24,5.57-16.85,17.61-.1,2-.05,4.11-.23,6.15-.57,6.13-3.55,9.21-9.65,10a12.64,12.64,0,0,1-1.84.12c-3.28,0-6.56,0-9.85,0Z"/><path d="M279.76,134.68c13.12.09,17.14,4.16,16.84,17.41a32.22,32.22,0,0,1-1,7.24c-1.25,4.86-4.49,7.81-9.54,8.14a82.15,82.15,0,0,1-12.84,0c-5.44-.47-9.19-4-9.75-9.35a68.59,68.59,0,0,1-.06-13.44c.49-5.32,4.23-8.78,9.63-9.57C275.25,134.77,277.52,134.81,279.76,134.68Z"/></svg>