<svg width="40" height="40" viewBox="0 0 40 40" fill="none" xmlns="http://www.w3.org/2000/svg">
<path opacity="0.2" d="M39.8914 20.0005C39.8914 30.988 30.9845 39.8952 19.997 39.8952C9.00949 39.8952 0.102417 30.988 0.102417 20.0005C0.102417 9.01303 9.00949 0.105957 19.997 0.105957C30.9843 0.105957 39.8914 9.01303 39.8914 20.0005Z" fill="#00A478"/>
<path d="M17.957 19.6519V16.1714H13.2365V13.1206H26.4276V16.2144H21.707V19.6519H17.957Z" fill="#00A478"/>
<path fill-rule="evenodd" clip-rule="evenodd" d="M11.207 20.0386C11.207 18.8784 15.0011 17.9331 19.7217 17.9331C24.4423 17.9331 28.2364 18.8784 28.2364 20.0386C28.2364 21.1987 24.4423 22.144 19.7217 22.144C15.0011 22.144 11.207 21.1987 11.207 20.0386ZM27.5306 20.0386C27.2217 19.6089 24.6629 18.2769 19.7217 18.2769C14.7806 18.2769 12.2217 19.5659 11.9129 20.0386C12.2217 20.4683 14.7806 21.1128 19.7217 21.1128C24.707 21.1128 27.2217 20.4683 27.5306 20.0386Z" fill="#00A478"/>
<path d="M21.707 20.7261V18.3198C21.0893 18.2769 20.4276 18.2339 19.7658 18.2339C19.1482 18.2339 18.5746 18.2339 18.0011 18.2769V20.6831C18.5305 20.6831 19.1482 20.7261 19.7658 20.7261C20.4276 20.769 21.0893 20.769 21.707 20.7261Z" fill="#00A478"/>
<path d="M19.7217 22.144C19.1041 22.144 18.5306 22.144 17.957 22.1011V28.5034H21.6629V22.0581C21.0453 22.1011 20.3835 22.144 19.7217 22.144Z" fill="#00A478"/>
</svg>
