<svg width="40" height="40" viewBox="0 0 40 40" fill="none" xmlns="http://www.w3.org/2000/svg">
<g clip-path="url(#clip0_57_118)">
<path fill-rule="evenodd" clip-rule="evenodd" d="M7.324 0.196457L0.0305952 17.8075C0.00284167 17.873 -0.00595324 17.947 0.00549662 18.0186C0.0169465 18.0903 0.0480404 18.1558 0.0942313 18.2057L19.792 39.9038C19.8479 39.9655 19.9224 40 20 40C20.0775 40 20.152 39.9655 20.208 39.9038L39.9057 18.2071C39.9519 18.1572 39.983 18.0916 39.9944 18.02C40.0059 17.9483 39.9971 17.8743 39.9693 17.8088L32.6759 0.197811C32.6524 0.138666 32.6145 0.0885626 32.5669 0.0534889C32.5192 0.0184152 32.4638 -0.000145086 32.4072 2.62165e-05H7.59504C7.53819 -0.000786819 7.48235 0.0173264 7.43426 0.0521809C7.38617 0.0870353 7.34787 0.137142 7.324 0.196457Z" fill="#50AF95"/>
<path fill-rule="evenodd" clip-rule="evenodd" d="M22.5307 19.6157C22.3893 19.6279 21.6587 19.678 20.0289 19.678C18.7326 19.678 17.8123 19.6333 17.4894 19.6157C12.4798 19.3624 8.74057 18.3599 8.74057 17.1597C8.74057 15.9594 12.4798 14.9583 17.4894 14.7009V18.6173C17.817 18.6444 18.755 18.7081 20.0513 18.7081C21.6068 18.7081 22.3858 18.6336 22.526 18.6187V14.7036C27.525 14.9596 31.256 15.9621 31.256 17.1597C31.256 18.3572 27.5262 19.3597 22.526 19.6144L22.5307 19.6157ZM22.5307 14.2986V10.794H29.5071V5.44971H10.513V10.794H17.4882V14.2972C11.8187 14.5966 7.55505 15.8876 7.55505 17.4347C7.55505 18.9817 11.8187 20.2714 17.4882 20.5721V31.8025H22.5296V20.5681C28.1861 20.2687 32.4427 18.979 32.4427 17.4333C32.4427 15.8876 28.1896 14.5979 22.5296 14.2972L22.5307 14.2986Z" fill="white"/>
</g>
<defs>
<clipPath id="clip0_57_118">
<rect width="40" height="40" fill="white"/>
</clipPath>
</defs>
</svg>
