<svg width="40" height="40" viewBox="0 0 40 40" fill="none" xmlns="http://www.w3.org/2000/svg">
<path opacity="0.2" d="M39.4 24.8385C36.7287 35.5529 25.8762 42.0729 15.1606 39.4016C4.44999 36.7304 -2.07064 25.8779 0.601238 15.1641C3.27124 4.4485 14.1231 -2.07275 24.8356 0.598497C35.5506 3.26975 42.0706 14.1235 39.3994 24.8385H39.4Z" fill="#F7931A"/>
<path fill-rule="evenodd" clip-rule="evenodd" d="M26.0235 17.6763C26.2931 15.8709 24.9185 14.9004 23.039 14.253L23.6487 11.8074L22.1596 11.4364L21.5661 13.8175C21.1751 13.72 20.7732 13.628 20.3738 13.5369L20.9716 11.14L19.4838 10.769L18.8737 13.2138C18.5498 13.14 18.2318 13.0671 17.9231 12.9903L17.9248 12.9827L15.8719 12.4701L15.4758 14.0601C15.4758 14.0601 16.5803 14.3132 16.557 14.3289C17.1599 14.4794 17.2693 14.8784 17.2507 15.1947L16.5562 17.9807C16.5977 17.9913 16.6516 18.0066 16.7109 18.0303L16.5541 17.9913L15.5801 21.8941C15.5064 22.0773 15.3194 22.3521 14.8979 22.2477C14.9128 22.2694 13.8159 21.9777 13.8159 21.9777L13.0769 23.6821L15.0145 24.165C15.2332 24.2198 15.4492 24.2762 15.6628 24.3319L15.6632 24.332C15.8015 24.3681 15.9389 24.4039 16.0754 24.4389L15.4593 26.9129L16.9462 27.2839L17.5568 24.8366C17.9626 24.9469 18.3569 25.0486 18.7427 25.1445L18.1347 27.5803L19.6233 27.9513L20.2394 25.4824C22.7778 25.9628 24.687 25.769 25.4897 23.4735C26.1371 21.6249 25.4579 20.5586 24.1223 19.8628C25.0949 19.6377 25.8276 18.9979 26.023 17.6763H26.0235ZM22.6218 22.4458C22.1992 24.1424 19.5429 23.4404 18.3286 23.1195L18.3285 23.1194C18.2198 23.0907 18.1227 23.0651 18.0397 23.0444L18.8572 19.7674C18.9586 19.7927 19.0825 19.8205 19.2228 19.852C20.4791 20.1339 23.0536 20.7116 22.6222 22.4458H22.6218ZM19.4754 18.3314C20.4886 18.6017 22.6971 19.1909 23.0818 17.6496C23.4752 16.0728 21.3276 15.5975 20.2787 15.3654C20.1608 15.3393 20.0568 15.3163 19.9718 15.2951L19.2307 18.2673C19.3008 18.2848 19.3831 18.3068 19.4754 18.3314Z" fill="#F7931A"/>
</svg>
